<?xml version="1.0" encoding="utf-8"?>
<!-- Generator: Adobe Illustrator 19.1.0, SVG Export Plug-In . SVG Version: 6.00 Build 0)  -->
<svg version="1.1" id="Layer_1" xmlns="http://www.w3.org/2000/svg" xmlns:xlink="http://www.w3.org/1999/xlink" x="0px" y="0px"
	 viewBox="0 0 463 93.8" style="enable-background:new 0 0 463 93.8;" xml:space="preserve">
<style type="text/css">
	.st0{fill:#FFFFFF;}
	.st1{fill:#2FBDBE;}
	.st2{opacity:0.4;fill:#2FBDBE;}
	.st3{fill:none;stroke:#2C2D60;stroke-width:3;stroke-miterlimit:10;}
	.st4{fill:none;stroke:#FFFFFF;stroke-width:4;stroke-miterlimit:10;}
	.st5{fill:#EFF6DF;}
	.st6{fill:#2C2D60;}
	.st7{fill:none;stroke:#2FBDBE;stroke-width:3;stroke-miterlimit:10;}
	.st8{fill:none;stroke:#FFFFFF;stroke-width:2;stroke-miterlimit:10;}
	.st9{opacity:0.6;fill:#2FBDBE;}
	.st10{fill:none;stroke:#2C2D60;stroke-width:4;stroke-miterlimit:10;}
	.st11{fill:none;stroke:#2FBDBE;stroke-width:4;stroke-miterlimit:10;}
	.st12{fill:none;stroke:#2B2C60;stroke-width:3;stroke-miterlimit:10;}
	.st13{fill:none;stroke:#2FBDBE;stroke-width:2;stroke-miterlimit:10;}
	.st14{fill:#EAEAEA;}
</style>
<g>
	<line class="st3" x1="114.1" y1="41.7" x2="114.1" y2="60.5"/>
	<polyline class="st3" points="129.7,60.5 137.7,52.4 172.5,17.4 	"/>
	<line class="st12" x1="423.3" y1="41.1" x2="439.6" y2="57.4"/>
	<line class="st12" x1="439.5" y1="41.1" x2="455.7" y2="57.4"/>
	<polyline class="st3" points="190.4,18.7 171.7,18.7 171.7,0 	"/>
	<polyline class="st12" points="359.7,29.5 372.9,42.7 359.7,55.9 	"/>
	<polyline class="st12" points="378.4,29.5 391.6,42.7 378.4,55.9 	"/>
	<polyline class="st12" points="396,29.5 409.2,42.7 396,55.9 	"/>
	<polyline class="st3" points="177.4,31.7 158.7,31.7 158.7,13 	"/>
	<polyline class="st3" points="164.4,44.7 145.7,44.7 145.7,26 	"/>
	<polygon class="st6" points="452.1,30.9 448.4,24.4 452.1,17.9 459.4,17.9 463,24.4 459.4,30.9 	"/>
	<polygon class="st6" points="83.3,27.9 78.9,19.9 83.3,11.9 92.3,11.9 96.8,19.9 92.3,27.9 	"/>
	<polygon class="st6" points="182.1,9.9 179.8,5.9 182.1,1.9 186.6,1.9 188.8,5.9 186.6,9.9 	"/>
	<line class="st8" x1="429.3" y1="9.9" x2="336.3" y2="9.9"/>
	<line class="st13" x1="97.3" y1="1.9" x2="118.3" y2="1.9"/>
	<line class="st12" x1="424.3" y1="43.4" x2="369.3" y2="43.4"/>
	<polygon class="st5" points="418.1,83 412.9,73.9 418.1,64.9 428.6,64.9 433.8,73.9 428.6,83 	"/>
	<polygon class="st6" points="440.1,87 437.8,83 440.1,78.9 444.8,78.9 447.2,83 444.8,87 	"/>
	<polygon class="st1" points="426.4,93.8 424.9,91.1 426.4,88.5 429.5,88.5 431,91.1 429.5,93.8 	"/>
	<line class="st8" x1="69.1" y1="35.3" x2="0" y2="35.3"/>
	<g id="XMLID_211_">
		<g>
			<path id="XMLID_243_" class="st14" d="M219.3,45.3h-6.8V29.9h6c1,0,1.9,0.1,2.7,0.4c0.8,0.3,1.3,0.6,1.7,1c0.7,0.8,1,1.7,1,2.7
				c0,1.2-0.4,2.1-1.2,2.7c-0.3,0.2-0.4,0.3-0.6,0.4c-0.1,0.1-0.3,0.1-0.6,0.3c1,0.2,1.7,0.6,2.3,1.3c0.6,0.7,0.9,1.5,0.9,2.4
				c0,1.1-0.4,2-1.1,2.9C222.9,44.8,221.5,45.3,219.3,45.3z M216,36.1h1.6c1,0,1.7-0.1,2.1-0.3c0.5-0.2,0.7-0.7,0.7-1.3
				c0-0.7-0.2-1.1-0.6-1.4c-0.4-0.2-1.1-0.3-2.2-0.3H216V36.1z M216,42.4h2.4c1,0,1.7-0.1,2.2-0.4c0.5-0.2,0.7-0.7,0.7-1.4
				c0-0.7-0.3-1.2-0.8-1.4c-0.5-0.2-1.4-0.3-2.5-0.3h-2V42.4z"/>
			<path id="XMLID_240_" class="st14" d="M238.6,35c0,2.5-1,4.1-2.9,4.8l3.9,5.5h-4.2l-3.4-4.9h-2.4v4.9H226V29.9h5.9
				c2.4,0,4.1,0.4,5.1,1.2C238.1,31.9,238.6,33.2,238.6,35z M234.4,36.8c0.4-0.4,0.6-1,0.6-1.8c0-0.8-0.2-1.4-0.7-1.7
				c-0.4-0.3-1.2-0.5-2.3-0.5h-2.6v4.6h2.5C233.2,37.4,234,37.2,234.4,36.8z"/>
			<path id="XMLID_238_" class="st14" d="M273.6,29.9h3.4v6.3l5.8-6.3h4.3l-6.1,6.8c0.5,0.7,1.5,2.1,2.9,4.1c1.4,2,2.5,3.5,3.2,4.5
				h-4l-4.5-6.1l-1.5,1.7v4.4h-3.4V29.9z"/>
			<path id="XMLID_236_" class="st14" d="M288.4,45.3V29.9h3.4v12.4h6.6v3.1H288.4z"/>
			<path id="XMLID_234_" class="st14" d="M305.4,45.3H302v-6.1l-5.4-9.4h3.7l3.3,5.7l3.3-5.7h3.7l-5.4,9.4V45.3z"/>
			<path id="XMLID_232_" class="st14" d="M322.8,29.9h3.4v15.5h-3.4l-7.4-9.7v9.7H312V29.9h3.2l7.6,10V29.9z"/>
			<path id="XMLID_230_" class="st14" d="M216.7,60.1c0.6,0.7,1.3,1.1,2.3,1.1c1,0,1.7-0.4,2.3-1.1c0.6-0.7,0.9-1.7,0.9-2.9v-8.5
				h3.4v8.6c0,2.2-0.6,4-1.9,5.2c-1.2,1.2-2.8,1.8-4.8,1.8c-1.9,0-3.5-0.6-4.8-1.8c-1.2-1.2-1.9-2.9-1.9-5.2v-8.6h3.4v8.5
				C215.8,58.4,216.1,59.3,216.7,60.1z"/>
			<path id="XMLID_228_" class="st14" d="M238.7,48.6h3.4V64h-3.4l-7.4-9.7V64h-3.4V48.6h3.2l7.6,10V48.6z"/>
			<path id="XMLID_226_" class="st14" d="M245,48.6h3.4V64H245V48.6z"/>
			<path id="XMLID_224_" class="st14" d="M258.4,51.6V64h-3.4V51.6h-4.4v-3h12.2v3H258.4z"/>
			<path id="XMLID_222_" class="st14" d="M276,48.6v3.1h-7.7v3.2h6.9v2.9h-6.9V61h7.9V64h-11.4V48.6H276z"/>
			<path id="XMLID_219_" class="st14" d="M290.2,50.6c1.5,1.3,2.2,3.2,2.2,5.6c0,2.4-0.7,4.3-2.2,5.7c-1.4,1.4-3.6,2.1-6.6,2.1h-5.3
				V48.6h5.5C286.6,48.6,288.8,49.3,290.2,50.6z M287.7,59.8c0.8-0.8,1.3-2,1.3-3.5c0-1.5-0.4-2.7-1.3-3.5c-0.8-0.8-2.1-1.2-3.9-1.2
				h-1.9V61h2.2C285.6,61,286.9,60.6,287.7,59.8z"/>
			<path id="XMLID_216_" class="st14" d="M253.2,43.2c-1.6,1.5-3.5,2.3-5.8,2.3c-2.3,0-4.2-0.8-5.8-2.3c-1.6-1.5-2.3-3.4-2.3-5.7
				c0-2.3,0.8-4.2,2.3-5.7c1.6-1.5,3.5-2.3,5.8-2.3c2.3,0,4.2,0.8,5.8,2.3c1.6,1.5,2.3,3.4,2.3,5.7
				C255.5,39.8,254.8,41.7,253.2,43.2z M252,37.5c0-1.4-0.4-2.6-1.3-3.5c-0.9-1-2-1.5-3.3-1.5c-1.3,0-2.4,0.5-3.3,1.5
				c-0.9,1-1.3,2.1-1.3,3.5s0.4,2.6,1.3,3.5c0.9,1,2,1.4,3.3,1.4c1.3,0,2.4-0.5,3.3-1.4C251.6,40,252,38.9,252,37.5z"/>
			<path id="XMLID_213_" class="st14" d="M270.1,43.2c-1.6,1.5-3.5,2.3-5.8,2.3c-2.3,0-4.2-0.8-5.8-2.3c-1.6-1.5-2.3-3.4-2.3-5.7
				c0-2.3,0.8-4.2,2.3-5.7c1.6-1.5,3.5-2.3,5.8-2.3c2.3,0,4.2,0.8,5.8,2.3c1.6,1.5,2.3,3.4,2.3,5.7
				C272.5,39.8,271.7,41.7,270.1,43.2z M269,37.5c0-1.4-0.4-2.6-1.3-3.5c-0.9-1-2-1.5-3.3-1.5c-1.3,0-2.4,0.5-3.3,1.5
				c-0.9,1-1.3,2.1-1.3,3.5s0.4,2.6,1.3,3.5c0.9,1,2,1.4,3.3,1.4c1.3,0,2.4-0.5,3.3-1.4C268.5,40,269,38.9,269,37.5z"/>
		</g>
	</g>
	<line class="st7" x1="132.9" y1="60.5" x2="114.1" y2="41.7"/>
	<line class="st7" x1="115" y1="60.5" x2="96.2" y2="41.7"/>
	<line class="st7" x1="439.5" y1="41.1" x2="439.6" y2="57.4"/>
</g>
</svg>
