<?xml version="1.0" encoding="utf-8"?>
<!-- Generator: Adobe Illustrator 19.1.0, SVG Export Plug-In . SVG Version: 6.00 Build 0)  -->
<svg version="1.1" id="Layer_1" xmlns="http://www.w3.org/2000/svg" xmlns:xlink="http://www.w3.org/1999/xlink" x="0px" y="0px"
	 viewBox="0 0 42 42" style="enable-background:new 0 0 42 42;" xml:space="preserve">
<style type="text/css">
	.st0{fill:#FFFFFF;}
</style>
<path class="st0" d="M21,0C9.4,0,0,9.4,0,21s9.4,21,21,21c11.6,0,21-9.4,21-21S32.6,0,21,0z M24.1,30.6c-0.5,0.1-0.7-0.2-0.7-0.5
	c0-0.3,0-1.4,0-2.7c0-0.9-0.3-1.5-0.7-1.8c2.2-0.2,4.5-1.1,4.5-4.9c0-1.1-0.4-2-1-2.6c0.1-0.3,0.4-1.3-0.1-2.6c-0.8-0.3-2.7,1-2.7,1
	c-0.8-0.2-1.6-0.3-2.5-0.3s-1.7,0.1-2.5,0.3c0,0-1.9-1.3-2.7-1c-0.5,1.4-0.2,2.4-0.1,2.6c-0.6,0.7-1,1.6-1,2.6
	c0,3.8,2.3,4.6,4.5,4.9c-0.3,0.3-0.5,0.7-0.6,1.3c-0.6,0.3-2,0.7-2.9-0.8c-0.5-0.9-1.5-1-1.5-1c-1,0-0.1,0.6-0.1,0.6
	c0.6,0.3,1.1,1.4,1.1,1.4c0.6,1.8,3.3,1.2,3.3,1.2c0,0.8,0,1.6,0,1.8c0,0.3-0.2,0.6-0.7,0.5c-3.9-1.3-6.7-5-6.7-9.4
	c0-5.4,4.4-9.9,9.9-9.9s9.9,4.4,9.9,9.9C30.9,25.6,28,29.3,24.1,30.6z"/>
</svg>
