<?xml version="1.0" encoding="utf-8"?>
<!-- Generator: Adobe Illustrator 19.1.0, SVG Export Plug-In . SVG Version: 6.00 Build 0)  -->
<svg version="1.1" id="Layer_1" xmlns="http://www.w3.org/2000/svg" xmlns:xlink="http://www.w3.org/1999/xlink" x="0px" y="0px"
	 viewBox="0 0 58.7 505.2" style="enable-background:new 0 0 58.7 505.2;" xml:space="preserve">
<style type="text/css">
	.st0{fill:none;stroke:#2C2D60;stroke-width:2;stroke-miterlimit:10;}
	.st1{fill:none;stroke:#FFFFFF;stroke-miterlimit:10;}
	.st2{fill:#EFF6DF;}
	.st3{fill:#2C2D60;}
	.st4{fill:none;stroke:#2FBDBE;stroke-width:2;stroke-miterlimit:10;}
</style>
<g>
	<polyline class="st0" points="7.7,348.5 19,348.5 19,337.2 	"/>
	<polyline class="st0" points="0,340.8 11.3,340.8 11.3,329.5 	"/>
	<line class="st0" x1="29.7" y1="359.3" x2="11" y2="339.9"/>
	<line class="st0" x1="36.7" y1="383.3" x2="17.8" y2="364.4"/>
	<polyline class="st0" points="36.6,382.2 36.6,389.5 36.5,420.9 	"/>
	<polyline class="st0" points="45.8,430.2 37,421.4 28.2,430.2 	"/>
	<polyline class="st0" points="45.8,418 37,409.2 28.2,418 	"/>
	<polyline class="st0" points="45.8,405.8 37,397 28.2,405.8 	"/>
	<line class="st0" x1="36.7" y1="71.1" x2="17.8" y2="90"/>
	<line class="st0" x1="28.4" y1="95.8" x2="15.2" y2="109.1"/>
	<line class="st1" x1="23.4" y1="405.9" x2="23.4" y2="52.9"/>
	<polygon class="st2" points="47.6,88 45.2,83.5 47.6,79 52.5,79 54.9,83.5 52.5,88 	"/>
	<polygon class="st3" points="24.1,14 20.3,7 24.1,0 31.5,0 35.3,7 31.5,14 	"/>
	<polygon class="st3" points="38.5,103.3 36.6,99.9 38.5,96.6 42.4,96.6 44.4,99.9 42.4,103.3 	"/>
	<polyline class="st0" points="36.6,72.1 36.6,64.9 36.5,33.4 	"/>
	<polyline class="st0" points="45.8,24.2 37,32.9 28.2,24.2 	"/>
	<polyline class="st0" points="45.8,36.4 37,45.2 28.2,36.4 	"/>
	<polyline class="st0" points="45.8,48.6 37,57.3 28.2,48.6 	"/>
	<line class="st4" x1="17.7" y1="89.8" x2="29.7" y2="96.2"/>
	<polygon class="st2" points="50.7,368 48,372.5 50.7,377 56,377 58.7,372.5 56,368 	"/>
	<polygon class="st2" points="11.3,489 9,493.5 11.3,498 15.9,498 18.2,493.5 15.9,489 	"/>
	<polygon class="st2" points="26.9,472 24,478 26.9,484 32.8,484 35.7,478 32.8,472 	"/>
	<polygon class="st2" points="14.2,464 12.9,466 14.2,468 16.7,468 17.9,466 16.7,464 	"/>
	<polygon class="st2" points="18.3,461 17.7,462 18.3,463 19.5,463 20.2,462 19.5,461 	"/>
	<polygon class="st3" points="24,441 21.1,446.5 24,452 29.6,452 32.4,446.5 29.6,441 	"/>
	<polygon class="st3" points="37.4,353.4 35.7,356.4 37.4,359.3 40.8,359.3 42.5,356.4 40.8,353.4 	"/>
	<line class="st4" x1="37.5" y1="307.8" x2="37.5" y2="151.1"/>
	<line class="st1" x1="6" y1="79.3" x2="6" y2="13.7"/>
	<line class="st1" x1="54.4" y1="505.2" x2="54.4" y2="481.5"/>
	<line class="st4" x1="17.7" y1="364.6" x2="29.7" y2="358.2"/>
</g>
</svg>
