<?xml version="1.0" encoding="utf-8"?>
<!-- Generator: Adobe Illustrator 19.1.0, SVG Export Plug-In . SVG Version: 6.00 Build 0)  -->
<svg version="1.1" id="Layer_1" xmlns="http://www.w3.org/2000/svg" xmlns:xlink="http://www.w3.org/1999/xlink" x="0px" y="0px"
	 viewBox="0 0 45.7 78.1" style="enable-background:new 0 0 45.7 78.1;" xml:space="preserve">
<style type="text/css">
	.st0{fill:none;stroke:#2B2C60;stroke-width:2;stroke-miterlimit:10;}
	.st1{fill:#2C2D60;}
	.st2{fill:#EFF6DF;}
	.st3{fill:#2FBDBE;}
	.st4{fill:none;stroke:#2FBDBE;stroke-width:2;stroke-miterlimit:10;}
</style>
<g>
	<line class="st0" x1="24.4" y1="33.1" x2="36" y2="21.5"/>
	<line class="st0" x1="24.4" y1="21.6" x2="36" y2="10"/>
	<polyline class="st0" points="15.5,77.4 24.7,68.1 33.9,77.4 	"/>
	<polyline class="st0" points="15.5,64.3 24.7,55.1 33.9,64.3 	"/>
	<polyline class="st0" points="15.5,52 24.7,42.8 33.9,52 	"/>
	<polygon class="st1" points="9,8.1 4.5,10.8 0,8.1 0,2.7 4.5,0 9,2.7 	"/>
	<line class="st0" x1="24" y1="32.1" x2="24" y2="69.1"/>
	<polygon class="st2" points="13.8,45.3 7.8,48.7 1.9,45.3 1.9,38.5 7.8,35 13.8,38.5 	"/>
	<polygon class="st1" points="45.7,43.8 42.5,45.7 39.2,43.8 39.2,40 42.5,38.1 45.7,40 	"/>
	<polygon class="st3" points="16,23 13.4,24.6 10.7,23 10.7,20 13.4,18.4 16,20 	"/>
	<line class="st4" x1="24.4" y1="21.6" x2="36" y2="21.5"/>
</g>
</svg>
