<?xml version="1.0" encoding="utf-8"?>
<!-- Generator: Adobe Illustrator 19.1.0, SVG Export Plug-In . SVG Version: 6.00 Build 0)  -->
<svg version="1.1" id="Layer_1" xmlns="http://www.w3.org/2000/svg" xmlns:xlink="http://www.w3.org/1999/xlink" x="0px" y="0px"
	 viewBox="0 0 145.7 24.5" style="enable-background:new 0 0 145.7 24.5;" xml:space="preserve">
<style type="text/css">
	.st0{fill:#EFF6DF;}
	.st1{opacity:0.5;fill:#FFFFFF;}
	.st2{fill:none;stroke:#EFF6DF;stroke-miterlimit:10;}
</style>
<g>
	<g>
		<polygon class="st0" points="7.1,13.6 6.2,12.6 5.1,13.7 5.1,11 3.7,11 3.7,13.7 2.6,12.6 1.7,13.6 2.7,14.7 0,14.7 0,16.1 
			2.7,16.1 1.7,17.1 2.6,18.1 3.7,17 3.7,19.8 5.1,19.8 5.1,17 6.2,18.1 7.1,17.1 6.1,16.1 8.8,16.1 8.8,14.7 6.1,14.7 		"/>
	</g>
	<rect x="15.4" y="13" class="st1" width="90.2" height="4"/>
	<g>
		<line class="st2" x1="114.5" y1="3" x2="122.7" y2="11.2"/>
		<line class="st2" x1="122.7" y1="3" x2="114.5" y2="11.2"/>
		<line class="st2" x1="118.6" y1="0" x2="118.6" y2="14.2"/>
		<line class="st2" x1="125.7" y1="7.1" x2="111.5" y2="7.1"/>
	</g>
	<g>
		<line class="st2" x1="121.4" y1="18.1" x2="126" y2="22.8"/>
		<line class="st2" x1="126" y1="18.1" x2="121.4" y2="22.8"/>
		<line class="st2" x1="123.7" y1="16.4" x2="123.7" y2="24.5"/>
		<line class="st2" x1="127.8" y1="20.5" x2="119.6" y2="20.5"/>
	</g>
	<polygon class="st0" points="142,7.6 139.9,5.5 137.6,7.8 137.6,1.9 134.6,1.9 134.6,7.8 132.3,5.5 130.2,7.6 132.5,10 126.6,10 
		126.6,12.9 132.5,12.9 130.2,15.3 132.3,17.4 134.6,15.1 134.6,21 137.6,21 137.6,15.1 139.9,17.4 142,15.3 139.7,12.9 145.7,12.9 
		145.7,10 139.7,10 	"/>
</g>
</svg>
