# 3ds Max Wavefront OBJ Exporter v0.97b - (c)2007 guruware
# File Created: 11.11.2015 13:10:14

mtllib floe_03.mtl

#
# object Box001_frag_136_frag_228
#

v  605.8100 -51.1772 253.5226
v  590.7268 -51.1772 162.4041
v  621.8697 -51.1772 146.8204
v  606.9257 -51.1772 254.7963
v  722.9047 -51.1772 189.7790
v  761.7041 -51.1772 222.4104
v  641.6503 2.2735 99.7529
v  654.2518 -20.1120 109.0141
v  497.1434 2.2735 172.0629
v  745.1685 2.2735 148.3074
v  684.1259 -20.9794 123.1561
v  522.6711 2.2735 326.2773
v  545.6002 2.2735 352.4515
v  822.4738 2.2735 213.3233
v  846.4662 2.2735 289.4983
v  821.3295 -28.0960 246.5631
# 16 vertices

vn 0.0000 -1.0000 -0.0000
vn -0.4385 -0.1999 -0.8762
vn 0.4242 -0.0444 -0.9045
vn -0.8547 -0.4994 0.1415
vn -0.6225 -0.5613 0.5453
vn 0.3498 -0.4482 -0.8227
vn 0.0000 1.0000 -0.0000
vn -0.0000 1.0000 -0.0000
vn 0.6194 -0.2721 -0.7364
vn 0.1825 -0.4541 0.8721
vn 0.9470 -0.1188 -0.2983
# 11 vertex normals

vt -1.8199 0.0367 0.4505
vt -1.7056 0.0948 0.4505
vt -1.7138 0.1425 0.4505
vt -1.8223 0.0369 0.4505
vt -1.8450 0.2202 0.4505
vt -1.9135 0.2367 0.4505
vt 0.7966 0.5495 2.6774
vt 0.7902 0.5080 2.6981
vt 0.8575 0.4505 2.7138
vt 0.9052 0.4505 2.7056
vt 1.0178 0.5495 2.6394
vt -1.6774 0.5495 0.2034
vt -1.8169 0.5495 0.2792
vt -1.7386 0.5064 0.2316
vt -1.6981 0.5080 0.2098
vt 2.6394 0.5495 -0.0178
vt 2.7056 0.4505 0.0948
vt 2.8199 0.4505 0.0367
vt 2.8329 0.5495 -0.1162
vt 2.8223 0.4505 0.0369
vt 2.8811 0.5495 -0.1121
vt -1.7138 0.4505 0.1425
vt -1.8450 0.4505 0.2202
vt 2.9533 0.3122 0.5495
vt 2.8169 0.2792 0.5495
vt 2.6774 0.2034 0.5495
vt 3.0583 0.2763 0.5495
vt 2.6394 -0.0178 0.5495
vt 2.8329 -0.1162 0.5495
vt 2.8811 -0.1121 0.5495
vt -1.9135 0.4505 0.2367
vt -1.9533 0.5495 0.3122
vt -1.9895 0.4933 0.2835
vt 0.2367 0.4505 2.9135
vt 0.2835 0.4933 2.9895
vt 0.2763 0.5495 3.0583
vt -0.1121 0.5495 2.8811
vt 0.0369 0.4505 2.8223
vt -2.0583 0.5495 0.2763
# 39 texture coords

g Box001_frag_136_frag_228
usemtl wire_230151167
s 2
f 1/1/1 2/2/1 3/3/1 4/4/1 
f 5/5/1 6/6/1 4/4/1 3/3/1 
s off
f 7/7/2 8/8/2 3/9/2 2/10/2 
f 7/7/2 2/10/2 9/11/2 
f 7/12/3 10/13/3 11/14/3 8/15/3 
f 9/16/4 2/17/4 1/18/4 12/19/4 
f 4/20/5 13/21/5 12/19/5 1/18/5 
f 3/22/6 8/15/6 11/14/6 5/23/6 
s 4
f 14/24/7 10/25/7 7/26/7 15/27/8 
f 7/26/7 9/28/7 12/29/8 15/27/8 
f 12/29/8 13/30/8 15/27/8 
s off
f 6/31/9 5/23/9 11/14/9 10/13/9 
f 10/13/9 14/32/9 16/33/9 6/31/9 
f 6/34/10 16/35/10 15/36/10 13/37/10 
f 6/34/10 13/37/10 4/38/10 
f 16/33/11 14/32/11 15/39/11 
# 12 polygons - 4 triangles

