# 3ds Max Wavefront OBJ Exporter v0.97b - (c)2007 guruware
# File Created: 11.11.2015 13:10:04

mtllib floe_02.mtl

#
# object Box001_frag_136_frag_298
#

v  -238.5458 -51.1772 -664.6122
v  384.1027 -51.1772 -604.0216
v  376.9175 -51.1772 -573.9293
v  -173.7035 -51.1772 -471.0467
v  96.1751 -51.1772 -353.6742
v  -261.5063 -51.1772 -558.6570
v  362.5276 -10.3206 -600.7952
v  310.5986 2.2735 -604.2067
v  355.5716 2.2735 -598.5211
v  -192.6586 2.2735 -653.1793
v  341.1556 2.2735 -538.1447
v  -134.2986 2.2735 -435.3551
v  87.2971 2.2735 -338.9813
v  -221.0937 2.2735 -521.9600
# 14 vertices

vn 0.0000 -1.0000 -0.0000
vn 0.1250 0.0812 -0.9888
vn 0.0968 0.0425 -0.9944
vn 0.9601 0.1604 0.2292
vn -0.3967 -0.1039 0.9121
vn -0.0000 1.0000 0.0000
vn 0.0000 1.0000 -0.0000
vn 0.0000 1.0000 0.0000
vn -0.0000 1.0000 -0.0000
vn 0.6168 -0.0373 0.7862
vn -0.9386 0.2787 -0.2034
vn -0.7062 0.0158 0.7078
# 12 vertex normals

vt 1.8064 0.7608 0.4505
vt 1.2261 1.4075 0.4505
vt 1.1983 1.3747 0.4505
vt 1.5364 0.6740 0.4505
vt 1.1830 0.8793 0.4505
vt 1.7067 0.6479 0.4505
vt -0.3807 0.5262 -0.2402
vt -0.3254 0.5495 -0.2868
vt -0.3711 0.5495 -0.2434
vt -0.4075 0.4505 -0.2261
vt 0.2392 0.4505 -0.8064
vt 0.1973 0.5495 -0.7558
vt 1.3052 0.5495 -0.1877
vt 1.3747 0.4505 -0.1983
vt 1.4075 0.4505 -0.2261
vt 1.3807 0.5262 -0.2402
vt 1.3711 0.5495 -0.2434
vt -0.4641 0.5495 0.6887
vt -0.5364 0.4505 0.6740
vt -0.1830 0.4505 0.8793
vt -0.1739 0.5495 0.8573
vt -0.2434 1.3711 0.5495
vt -0.2868 1.3254 0.5495
vt -0.7558 0.8027 0.5495
vt -0.1739 0.8573 0.5495
vt -0.6324 0.6629 0.5495
vt -0.4641 0.6887 0.5495
vt -0.1877 1.3052 0.5495
vt 0.8573 0.5495 -0.1739
vt 0.8793 0.4505 -0.1830
vt 0.3521 0.4505 -0.7067
vt 0.3371 0.5495 -0.6324
vt -0.6324 0.5495 0.6629
vt -0.7067 0.4505 0.6479
# 34 texture coords

g Box001_frag_136_frag_298
usemtl wire_241131176
s 2
f 1/1/1 2/2/1 3/3/1 4/4/1 
f 3/3/1 5/5/1 4/4/1 
f 1/1/1 4/4/1 6/6/1 
s off
f 7/7/2 8/8/2 9/9/2 
f 8/8/3 7/7/3 2/10/3 1/11/3 
f 8/8/3 1/11/3 10/12/3 
f 11/13/4 3/14/4 2/15/4 7/16/4 
f 11/13/4 7/16/4 9/17/4 
f 12/18/5 4/19/5 5/20/5 13/21/5 
s 4
f 9/22/6 8/23/7 10/24/8 13/25/8 
f 14/26/7 12/27/7 13/25/8 10/24/8 
f 9/22/6 13/25/8 11/28/9 
s off
f 11/13/10 13/29/10 5/30/10 3/14/10 
f 10/12/11 1/11/11 6/31/11 14/32/11 
f 4/19/12 12/18/12 14/33/12 6/34/12 
# 9 polygons - 6 triangles

