<?xml version="1.0" encoding="utf-8"?>
<!-- Generator: Adobe Illustrator 19.1.0, SVG Export Plug-In . SVG Version: 6.00 Build 0)  -->
<svg version="1.1" id="Layer_1" xmlns="http://www.w3.org/2000/svg" xmlns:xlink="http://www.w3.org/1999/xlink" x="0px" y="0px"
	 viewBox="0 0 149.3 78.6" style="enable-background:new 0 0 149.3 78.6;" xml:space="preserve">
<style type="text/css">
	.st0{fill:#FFFFFF;}
</style>
<g>
	<g>
		<g id="XMLID_638_">
			<g>
				<path id="XMLID_669_" class="st0" d="M9,20.5H0.3v-20h7.8c1.4,0,2.5,0.2,3.5,0.5c1,0.3,1.7,0.8,2.2,1.3c0.9,1,1.3,2.2,1.3,3.5
					c0,1.6-0.5,2.7-1.5,3.5c-0.3,0.3-0.6,0.4-0.7,0.5c-0.1,0.1-0.4,0.2-0.7,0.3c1.2,0.3,2.2,0.8,3,1.7c0.7,0.8,1.1,1.9,1.1,3.2
					c0,1.4-0.5,2.6-1.4,3.7C13.7,19.9,11.8,20.5,9,20.5z M4.8,8.6h2.1c1.2,0,2.2-0.1,2.8-0.4c0.6-0.3,0.9-0.8,0.9-1.7
					c0-0.9-0.3-1.5-0.8-1.8C9.2,4.4,8.2,4.2,6.9,4.2H4.8V8.6z M4.8,16.7h3.1c1.3,0,2.2-0.2,2.9-0.5c0.6-0.3,1-0.9,1-1.9
					c0-0.9-0.3-1.5-1-1.8c-0.7-0.3-1.8-0.4-3.2-0.4H4.8V16.7z"/>
				<path id="XMLID_666_" class="st0" d="M34,7.1c0,3.2-1.3,5.3-3.8,6.2l5.1,7.2h-5.5l-4.4-6.4h-3.1v6.4h-4.5v-20h7.6
					C28.4,0.5,30.6,1,32,2C33.3,3.1,34,4.8,34,7.1z M28.6,9.5c0.6-0.5,0.8-1.3,0.8-2.4c0-1.1-0.3-1.8-0.9-2.2
					c-0.6-0.4-1.6-0.6-3-0.6h-3.3v5.9h3.3C27,10.2,28,10,28.6,9.5z"/>
				<path id="XMLID_664_" class="st0" d="M79.3,0.5h4.5v8.2l7.6-8.2h5.5l-8,8.8c0.7,1,2,2.7,3.8,5.3c1.9,2.6,3.2,4.5,4.2,5.8h-5.2
					l-5.9-7.9l-2,2.2v5.7h-4.5V0.5z"/>
				<path id="XMLID_662_" class="st0" d="M98.5,20.5v-20h4.5v16h8.5v4H98.5z"/>
				<path id="XMLID_660_" class="st0" d="M120.5,20.5h-4.5v-7.9l-6.9-12.1h4.8l4.3,7.4l4.3-7.4h4.8l-6.9,12.1V20.5z"/>
				<path id="XMLID_658_" class="st0" d="M143,0.5h4.5v20H143l-9.5-12.5v12.5H129v-20h4.2l9.8,12.9V0.5z"/>
				<path id="XMLID_656_" class="st0" d="M5.6,39.6c0.7,0.9,1.7,1.4,3,1.4c1.3,0,2.3-0.5,3-1.4c0.7-0.9,1.1-2.2,1.1-3.8V24.7h4.5
					v11.2c0,2.9-0.8,5.1-2.4,6.7c-1.6,1.6-3.7,2.3-6.2,2.3c-2.5,0-4.6-0.8-6.2-2.3C0.8,41,0,38.8,0,35.9V24.7h4.5v11.1
					C4.5,37.4,4.8,38.6,5.6,39.6z"/>
				<path id="XMLID_654_" class="st0" d="M34.1,24.7h4.5v20h-4.5l-9.5-12.5v12.5h-4.5v-20h4.2l9.8,12.9V24.7z"/>
				<path id="XMLID_652_" class="st0" d="M42.3,24.7h4.5v20h-4.5V24.7z"/>
				<path id="XMLID_650_" class="st0" d="M59.6,28.6v16.1h-4.5V28.6h-5.7v-3.9h15.8v3.9H59.6z"/>
				<path id="XMLID_648_" class="st0" d="M82.4,24.7v4h-10v4.1h9v3.8h-9v4.2h10.3v4H68v-20H82.4z"/>
				<path id="XMLID_645_" class="st0" d="M100.8,27.3c1.9,1.7,2.9,4.2,2.9,7.3c0,3.1-0.9,5.6-2.8,7.4c-1.9,1.8-4.7,2.7-8.5,2.7h-6.8
					v-20h7.1C96.2,24.7,98.9,25.6,100.8,27.3z M97.6,39.2c1.1-1,1.6-2.5,1.6-4.5c0-2-0.5-3.5-1.6-4.5c-1.1-1.1-2.8-1.6-5.1-1.6H90
					v12.2h2.8C94.9,40.8,96.5,40.3,97.6,39.2z"/>
				<path id="XMLID_642_" class="st0" d="M52.9,17.7c-2,2-4.5,3-7.5,3c-3,0-5.5-1-7.5-3c-2-2-3-4.4-3-7.4c0-2.9,1-5.4,3-7.4
					c2-2,4.5-3,7.5-3c3,0,5.4,1,7.5,3c2,2,3,4.4,3,7.4C55.9,13.3,54.9,15.7,52.9,17.7z M51.4,10.4c0-1.8-0.6-3.3-1.7-4.6
					c-1.1-1.3-2.6-1.9-4.2-1.9c-1.7,0-3.1,0.6-4.2,1.9c-1.1,1.3-1.7,2.8-1.7,4.6s0.6,3.3,1.7,4.6c1.1,1.3,2.6,1.9,4.2,1.9
					c1.7,0,3.1-0.6,4.2-1.9C50.8,13.7,51.4,12.1,51.4,10.4z"/>
				<path id="XMLID_639_" class="st0" d="M74.8,17.7c-2,2-4.5,3-7.5,3c-3,0-5.5-1-7.5-3c-2-2-3-4.4-3-7.4c0-2.9,1-5.4,3-7.4
					c2-2,4.5-3,7.5-3c3,0,5.4,1,7.5,3c2,2,3,4.4,3,7.4C77.9,13.3,76.8,15.7,74.8,17.7z M73.3,10.4c0-1.8-0.6-3.3-1.7-4.6
					c-1.1-1.3-2.6-1.9-4.2-1.9c-1.7,0-3.1,0.6-4.2,1.9C62,7,61.4,8.6,61.4,10.4s0.6,3.3,1.7,4.6c1.1,1.3,2.6,1.9,4.2,1.9
					c1.7,0,3.1-0.6,4.2-1.9C72.7,13.7,73.3,12.1,73.3,10.4z"/>
			</g>
		</g>
		<g>
			<g id="XMLID_582_">
				<path id="XMLID_634_" class="st0" d="M0,67h4l1.3,0.3l0.9,1l0.3,1.3l-0.3,1l-0.5,0.6l-0.3,0.1l0.3,0.1l0.6,0.8l0.3,1.3L6.3,75
					l-0.7,0.9l-1.1,0.5H0V67z M1.4,68.4v2.3h2.7l0.6-0.4l0.1-0.2L5,69.6L4.8,69l-0.4-0.4l-0.6-0.2H1.4z M4.6,74.7l0.3-0.4l0.2-0.7
					l-0.2-0.8l-0.3-0.4l-0.6-0.4H1.4V75h2.7L4.6,74.7z"/>
				<path id="XMLID_632_" class="st0" d="M11.4,70.7H11L10.3,71l-0.5,0.5l-0.3,0.6v4.3H8.2v-7h1.4v0.5l0.2-0.2l0.9-0.5h0.9l0.8,0.2
					l-0.3,1.4L11.4,70.7z"/>
				<path id="XMLID_629_" class="st0" d="M15.6,76.5l-1.3-0.7l-0.7-1l-0.3-1.1v-1.6l0.3-1.1l0.7-1l1.3-0.7H17l1.4,0.7l0.7,1l0.2,1.1
					v1.6l-0.2,1.1l-0.7,1L17,76.5H15.6z M16.8,75.1l0.7-0.3l0.3-0.5l0.2-0.8v-1.2l-0.2-0.8L17.4,71l-0.7-0.3h-0.9L15.2,71l-0.3,0.5
					l-0.2,0.8v1.2l0.2,0.8l0.3,0.4l0.7,0.3H16.8z"/>
				<path id="XMLID_626_" class="st0" d="M23,76.5l-1.3-0.7l-0.7-1l-0.3-1.1v-1.6L21,71l0.7-1l1.3-0.7h1.4l1.4,0.7l0.7,1l0.2,1.1
					v1.6l-0.2,1.1l-0.7,1l-1.4,0.7H23z M24.2,75.1l0.7-0.3l0.3-0.5l0.2-0.8v-1.2l-0.2-0.8L24.8,71l-0.7-0.3h-0.9L22.6,71l-0.3,0.5
					l-0.2,0.8v1.2l0.2,0.8l0.3,0.4l0.7,0.3H24.2z"/>
				<path id="XMLID_624_" class="st0" d="M32.2,69.4h2l-2.9,2.9l3,4.1h-1.7l-2.2-3.1l-0.6,0.6v2.5h-1.4v-10h1.4v5.5L32.2,69.4z"/>
				<path id="XMLID_622_" class="st0" d="M35.5,76.4v-10h1.4v10H35.5z"/>
				<path id="XMLID_620_" class="st0" d="M41.7,73.6l1.9-4.2h1.6L41,78.6h-1.5l1.5-3.2l-2.7-5.9h1.6L41.7,73.6z"/>
				<path id="XMLID_618_" class="st0" d="M47.6,69.8l0.9-0.5h1.2l1.2,0.3l0.8,1.1v5.6h-1.4v-5.1l-0.3-0.4l-0.7-0.2h-0.7L48,71.2
					l-0.3,0.5v4.7h-1.4v-7h1.4V69.8z"/>
				<path id="XMLID_615_" class="st0" d="M57.9,67h3.5l1.5,0.6l0.9,0.9l0.6,1.2l0.3,1.2v1.8l-0.3,1.2l-0.6,1.2L63,75.8l-1.5,0.6
					h-3.5V67z M61.2,75l1-0.4l0.6-0.6l0.4-0.7l0.3-0.9V71l-0.2-0.9l-0.4-0.8l-0.6-0.6l-1-0.4h-1.8V75H61.2z"/>
				<path id="XMLID_612_" class="st0" d="M66.1,66.4h1.9v1.9h-1.9V66.4z M66.3,69.4h1.4v7h-1.4V69.4z"/>
				<path id="XMLID_609_" class="st0" d="M71.9,78.6L71,78.4l-0.7-0.5l-0.5-0.5l1-1l0.4,0.4l0.2,0.2l0.6,0.2h0.8l0.5-0.2l0.5-0.3
					l0.1-0.3v-0.8l-0.8,0.5H72l-1.4-0.5l-0.9-1.2l-0.3-1v-1.2l0.3-1l0.9-1.2l1.3-0.7h1.2l0.8,0.3l0.1,0.1v-0.3h1.4v7.2l-0.3,1
					L74,78.3l-1,0.3H71.9z M73.8,71.1l-0.4-0.3L73,70.7h-0.8l-0.7,0.4L71,71.8l-0.1,0.5v0.9l0.1,0.5l0.5,0.7l0.7,0.3H73l0.7-0.5
					l0.3-0.5v-2.3L73.8,71.1z"/>
				<path id="XMLID_606_" class="st0" d="M77.2,66.4H79v1.9h-1.9V66.4z M77.4,69.4h1.4v7h-1.4V69.4z"/>
				<path id="XMLID_604_" class="st0" d="M82.7,69.6h1.7V71h-1.7v3.6l0.2,0.3l0.4,0.2h0.3l1.1-0.3l0.4,1.4l-1.4,0.3H83l-1-0.4
					L81.3,75V71h-1.2v-1.4h1.2v-2.4h1.4V69.6z"/>
				<path id="XMLID_601_" class="st0" d="M86.2,70.4l0.5-0.5l0.6-0.4l0.9-0.3h1.2l0.9,0.2l1,0.7l0.4,0.9v3.8l0.6,0.8l-1.1,0.8
					l-0.6-0.9l-0.2,0.2l-1.2,0.6h-0.8l-0.9-0.3l-0.6-0.4L86,74.7v-0.8l0.2-0.9l1-1l1.3-0.3h0.9l0.9,0.3l0.1,0v-0.6l-0.1-0.3
					l-0.5-0.3l-0.6-0.1h-0.8l-0.4,0.2l-0.4,0.2l-0.4,0.4L86.2,70.4z M90.2,74.3l0.1-0.3v-0.4l-0.2-0.2l-0.3-0.1l-0.6-0.2h-0.5
					L88,73.3l-0.4,0.4L87.4,74v0.3l0.3,0.5l0.2,0.1l0.5,0.2h0.4l0.9-0.3L90.2,74.3z"/>
				<path id="XMLID_599_" class="st0" d="M93.6,76.4v-10H95v10H93.6z"/>
				<path id="XMLID_597_" class="st0" d="M102.3,68.4v2.3h3.1v1.4h-3.1v4.3h-1.4V67h5.8v1.4H102.3z"/>
				<path id="XMLID_594_" class="st0" d="M109.3,76.5l-1.3-0.7l-0.7-1l-0.3-1.1v-1.6l0.3-1.1l0.7-1l1.3-0.7h1.4L112,70l0.7,1
					l0.2,1.1v1.6l-0.2,1.1l-0.7,1l-1.4,0.7H109.3z M110.4,75.1l0.7-0.3l0.3-0.5l0.2-0.8v-1.2l-0.2-0.8l-0.3-0.5l-0.7-0.3h-0.9
					l-0.6,0.3l-0.3,0.5l-0.2,0.8v1.2l0.2,0.8l0.3,0.4l0.7,0.3H110.4z"/>
				<path id="XMLID_592_" class="st0" d="M117.6,75.1l0.8-0.6l0.3-0.4v-4.7h1.4v7h-1.4V76l-0.9,0.5h-1.1l-1.3-0.3l-0.9-1.2v-5.6h1.4
					v5.1l0.3,0.4l0.6,0.2H117.6z"/>
				<path id="XMLID_590_" class="st0" d="M123.7,69.8l0.9-0.5h1.2l1.2,0.3l0.8,1.1v5.6h-1.4v-5.1l-0.3-0.4l-0.7-0.2h-0.7l-0.8,0.5
					l-0.3,0.5v4.7h-1.4v-7h1.4V69.8z"/>
				<path id="XMLID_587_" class="st0" d="M134.2,76.4V76l-0.8,0.5h-1.2l-1.4-0.7l-0.9-1.2l-0.3-1v-1.5l0.3-1l0.9-1.2l1.4-0.7h1.2
					l0.8,0.3l0.1,0.1v-3.3h1.4v10H134.2z M134,71.1l-0.4-0.3l-0.4-0.2h-0.8l-0.7,0.4l-0.6,0.8l-0.1,0.5v1.2l0.1,0.5l0.5,0.8l0.7,0.3
					h0.7l0.7-0.5l0.3-0.5v-2.7L134,71.1z"/>
				<path id="XMLID_585_" class="st0" d="M140.9,70.7h-0.5l-0.6,0.3l-0.5,0.5l-0.3,0.6v4.3h-1.4v-7h1.4v0.5l0.2-0.2l0.9-0.5h0.9
					l0.8,0.2l-0.3,1.4L140.9,70.7z"/>
				<path id="XMLID_583_" class="st0" d="M145.8,73.6l1.9-4.2h1.6l-4.1,9.2h-1.5l1.5-3.2l-2.7-5.9h1.6L145.8,73.6z"/>
			</g>
		</g>
	</g>
</g>
</svg>
