<?xml version="1.0" encoding="utf-8"?>
<!-- Generator: Adobe Illustrator 19.1.0, SVG Export Plug-In . SVG Version: 6.00 Build 0)  -->
<svg version="1.1" id="Layer_1" xmlns="http://www.w3.org/2000/svg" xmlns:xlink="http://www.w3.org/1999/xlink" x="0px" y="0px"
	 viewBox="0 0 33.7 33.7" style="enable-background:new 0 0 33.7 33.7;" xml:space="preserve">
<style type="text/css">
	.st0{fill:#FFFFFF;}
</style>
<g>
	<path class="st0" d="M19.6,18.8L19.6,18.8c-0.8,0.6-1.7,1.4-2.8,1.4s-2-0.7-2.7-1.3l-0.1-0.1c-1.1-0.9-2.3-1.9-3.6-2.8v5.5h12.6
		v-5.3c-0.3,0.2-0.5,0.4-0.8,0.6C21.4,17.4,20.5,18.1,19.6,18.8z"/>
	<path class="st0" d="M11.6,14.1c1.2,0.9,2.4,1.9,3.6,2.9l0.1,0.1c0.4,0.3,1.1,1,1.5,1c0.3,0,0.9-0.5,1.2-0.8
		c0.2-0.1,0.3-0.2,0.4-0.3c0.6-0.5,1.2-0.9,1.7-1.4c0.6-0.5,1.2-0.9,1.8-1.4c0.5-0.5,1.1-1.3,1.1-1.8v0H10.5
		C10.6,12.9,11,13.6,11.6,14.1z"/>
	<path class="st0" d="M16.9,0C7.5,0,0,7.5,0,16.9c0,9.3,7.5,16.9,16.9,16.9s16.9-7.5,16.9-16.9C33.7,7.5,26.2,0,16.9,0z M25.4,21.7
		c0,1.1-0.9,1.9-1.9,1.9H10.3c-1.1,0-1.9-0.9-1.9-1.9V12c0-1.1,0.9-1.9,1.9-1.9h13.1c1.1,0,1.9,0.9,1.9,1.9v9.2h0.1V21.7z"/>
</g>
</svg>
