<?xml version="1.0" encoding="utf-8"?>
<!-- Generator: Adobe Illustrator 19.1.0, SVG Export Plug-In . SVG Version: 6.00 Build 0)  -->
<svg version="1.1" id="Layer_1" xmlns="http://www.w3.org/2000/svg" xmlns:xlink="http://www.w3.org/1999/xlink" x="0px" y="0px"
	 viewBox="0 0 42 42" style="enable-background:new 0 0 42 42;" xml:space="preserve">
<style type="text/css">
	.st0{fill:#FFFFFF;}
</style>
<path class="st0" d="M21,0C9.4,0,0,9.4,0,21s9.4,21,21,21c11.6,0,21-9.4,21-21S32.6,0,21,0z M32.7,27.9c0,1.1-0.9,2-2,2H11.8
	c-1.1,0-2-0.9-2-2V13.9c0-1.1,0.9-2,2-2h18.8c1.1,0,2,0.9,2,2V27.9z M30.7,13.5H11.8c-0.2,0-0.4,0.2-0.4,0.4c0,1.5,0.7,2.7,1.9,3.6
	c1.7,1.3,3.4,2.7,5.1,4.1c0.7,0.6,1.9,1.7,2.8,1.7h0h0c0.9,0,2.1-1.2,2.8-1.7c1.7-1.4,3.4-2.7,5.1-4.1c0.8-0.7,1.9-2.1,1.9-3.2
	C31.1,14.1,31.2,13.5,30.7,13.5z M31.1,18c-0.3,0.3-0.6,0.6-0.9,0.8c-1.8,1.4-3.7,2.8-5.5,4.3c-1,0.8-2.2,1.8-3.5,1.8h0h0
	c-1.3,0-2.5-1-3.5-1.8c-1.8-1.5-3.6-2.9-5.5-4.3c-0.3-0.3-0.6-0.5-0.9-0.8v9.8c0,0.2,0.2,0.4,0.4,0.4h18.8c0.2,0,0.4-0.2,0.4-0.4V18
	z"/>
</svg>
