<?xml version="1.0" encoding="utf-8"?>
<!-- Generator: Adobe Illustrator 19.1.0, SVG Export Plug-In . SVG Version: 6.00 Build 0)  -->
<svg version="1.1" id="Layer_1" xmlns="http://www.w3.org/2000/svg" xmlns:xlink="http://www.w3.org/1999/xlink" x="0px" y="0px"
	 viewBox="0 0 440.6 531.9" style="enable-background:new 0 0 440.6 531.9;" xml:space="preserve">
<style type="text/css">
	.st0{fill:#FFFFFF;}
	.st1{fill:#2FBDBE;}
	.st2{opacity:0.4;fill:#2FBDBE;}
	.st3{fill:none;stroke:#2C2D60;stroke-width:3;stroke-miterlimit:10;}
	.st4{fill:none;stroke:#FFFFFF;stroke-width:4;stroke-miterlimit:10;}
	.st5{fill:#EFF6DF;}
	.st6{fill:#2C2D60;}
	.st7{fill:none;stroke:#2FBDBE;stroke-width:3;stroke-miterlimit:10;}
	.st8{fill:none;stroke:#FFFFFF;stroke-width:2;stroke-miterlimit:10;}
	.st9{opacity:0.6;fill:#2FBDBE;}
	.st10{fill:none;stroke:#2C2D60;stroke-width:4;stroke-miterlimit:10;}
	.st11{fill:none;stroke:#2FBDBE;stroke-width:4;stroke-miterlimit:10;}
	.st12{fill:none;stroke:#2B2C60;stroke-width:3;stroke-miterlimit:10;}
	.st13{fill:none;stroke:#2FBDBE;stroke-width:2;stroke-miterlimit:10;}
	.st14{fill:#EAEAEA;}
</style>
<g>
	<g>
		
			<rect x="81.5" y="230.1" transform="matrix(0.7071 0.7071 -0.7071 0.7071 199.7746 13.4001)" class="st6" width="4.5" height="35.6"/>
	</g>
	<g>
		
			<rect x="195.5" y="160.5" transform="matrix(0.7071 0.7071 -0.7071 0.7071 176.4205 -100.4609)" class="st6" width="27.9" height="4.5"/>
	</g>
	<g>
		<rect x="149.1" y="51" class="st6" width="29.2" height="4.5"/>
	</g>
	<g>
		
			<rect x="314.4" y="120.2" transform="matrix(0.4928 0.8701 -0.8701 0.4928 280.9328 -205.315)" class="st6" width="4.5" height="36.4"/>
	</g>
	<g>
		
			<rect x="314.4" y="102.7" transform="matrix(0.4928 0.8701 -0.8701 0.4928 265.7415 -214.1695)" class="st6" width="4.5" height="36.4"/>
	</g>
	<g>
		<path class="st0" d="M24.9,62.5h28.3v-27h16.4v70.9H53.2V76.3H24.9v30.1H8.5V35.5h16.4V62.5z"/>
	</g>
	<g>
		
			<rect x="35.8" y="82.4" transform="matrix(0.7071 0.7071 -0.7071 0.7071 83.8459 -33.0532)" class="st6" width="92" height="4.5"/>
	</g>
	<g>
		<path class="st0" d="M126.8,93H100l-5.4,13.4h-17l28.6-70.9h15l28,70.9h-17L126.8,93z M122.3,80.4l-8.7-23.8l-8.8,23.8H122.3z"/>
	</g>
	<g>
		<path class="st0" d="M307.6,103.5l-25.4-37.8h19.3l14.2,22l14.2-22h19.3L324,103.5v33.1h-16.4V103.5z"/>
	</g>
	<g>
		<polygon class="st6" points="284.6,145.6 282.4,141.8 284.6,138 288.9,138 291.1,141.8 288.9,145.6 		"/>
	</g>
	<g>
		<polygon class="st6" points="66.9,69.6 47.4,69.6 47.4,65.1 62.4,65.1 62.4,50 66.9,50 		"/>
	</g>
	<g>
		<polygon class="st6" points="303.7,88.4 289.9,74.6 303.7,60.8 306.8,63.9 296.2,74.6 306.8,85.2 		"/>
	</g>
	<g>
		<polygon class="st6" points="285.2,88.4 271.4,74.6 285.2,60.8 288.3,63.9 277.7,74.6 288.3,85.2 		"/>
	</g>
	<g>
		<polygon class="st6" points="267.4,88.4 253.6,74.6 267.4,60.8 270.6,63.9 260,74.6 270.6,85.2 		"/>
	</g>
	<g>
		<polygon class="st6" points="51.6,54.3 32.1,54.3 32.1,49.8 47.2,49.8 47.2,34.7 51.6,34.7 		"/>
	</g>
	<g>
		<polygon class="st6" points="37.9,19.7 34.5,25.7 37.9,31.7 44.7,31.7 48,25.7 44.7,19.7 		"/>
	</g>
	<g>
		<polygon class="st5" points="345.4,102.7 342,108.7 345.4,114.7 352.1,114.7 355.5,108.7 352.1,102.7 		"/>
	</g>
	<g>
		<polygon class="st5" points="24.2,14.7 22.4,17.7 24.2,20.7 27.9,20.7 29.8,17.7 27.9,14.7 		"/>
	</g>
	<g>
		<polygon class="st5" points="290.1,128.7 289.2,130.2 290.1,131.7 291.8,131.7 292.7,130.2 291.8,128.7 		"/>
	</g>
	<g>
		<polygon class="st6" points="175.9,101.7 171.8,109.2 175.9,116.7 184.2,116.7 188.4,109.2 184.2,101.7 		"/>
	</g>
	<g>
		<polygon class="st6" points="165.3,119.8 163.1,123.5 165.3,127.3 169.7,127.3 171.8,123.5 169.7,119.8 		"/>
	</g>
	<g>
		<polygon class="st6" points="59.9,380.7 55.8,388.2 59.9,395.7 68.2,395.7 72.4,388.2 68.2,380.7 		"/>
	</g>
	<g>
		<polygon class="st6" points="49.3,398.8 47.1,402.5 49.3,406.3 53.7,406.3 55.8,402.5 53.7,398.8 		"/>
	</g>
	<g>
		
			<rect x="162.6" y="73.9" transform="matrix(0.7071 0.7071 -0.7071 0.7071 106.5536 -104.9492)" class="st6" width="34.7" height="4.5"/>
	</g>
	<g>
		<path class="st0" d="M182.1,0c6.2,0,13,0.8,18.6,5.8c6.1,5.3,6.9,12.3,6.9,17.2c0,8.9-3.4,13.9-6.1,16.7
			c-5.6,5.7-13.1,6.3-18.1,6.3h-10v24.9h-16.4V0H182.1z M173.5,32.6h5.8c2.2,0,6.2-0.1,8.8-2.7c1.5-1.5,2.7-3.9,2.7-7
			c0-3-1.1-5.4-2.7-6.9c-2.4-2.3-6-2.7-9.1-2.7h-5.5V32.6z"/>
	</g>
	<g>
		
			<rect x="178.9" y="118.4" transform="matrix(0.7071 0.7071 -0.7071 0.7071 151.0407 -123.3757)" class="st6" width="91.1" height="4.5"/>
	</g>
	<g>
		
			<rect x="197.4" y="70.6" transform="matrix(0.7071 0.7071 -0.7071 0.7071 115.7521 -117.4155)" class="st6" width="4.5" height="20.9"/>
	</g>
	<g>
		<rect x="205.4" y="72.3" class="st6" width="88" height="4.5"/>
	</g>
	<g>
		<rect x="299.2" y="127.1" class="st1" width="33.3" height="4.5"/>
	</g>
	<g>
		<path class="st0" d="M232.8,92.8c6.2,0,13,0.8,18.6,5.8c6.1,5.3,6.9,12.3,6.9,17.2c0,8.9-3.4,13.9-6.1,16.7
			c-5.6,5.7-13.1,6.3-18.1,6.3h-10v24.9h-16.4V92.8H232.8z M224.1,125.5h5.8c2.2,0,6.2-0.1,8.8-2.7c1.5-1.5,2.7-3.9,2.7-7
			c0-3-1.1-5.4-2.7-6.9c-2.4-2.3-6-2.7-9.1-2.7h-5.5V125.5z"/>
	</g>
	<g>
		<rect x="199.6" y="150.6" class="st1" width="56.5" height="4.5"/>
	</g>
	<g>
		
			<rect x="144.1" y="40" transform="matrix(0.7071 0.7071 -0.7071 0.7071 103.1371 -78.5237)" class="st1" width="4.5" height="90.5"/>
	</g>
	<g>
		<polygon class="st6" points="71.6,174 30.3,174 30.3,169.5 71.6,169.5 117.2,169.4 117.2,173.8 		"/>
	</g>
	<g>
		<polygon class="st6" points="126.5,185.5 112.7,171.7 126.5,157.9 129.6,161.1 119,171.7 129.6,182.4 		"/>
	</g>
	<g>
		<polygon class="st6" points="109.4,185.5 95.6,171.7 109.4,157.9 112.6,161.1 101.9,171.7 112.6,182.4 		"/>
	</g>
	<g>
		<polygon class="st6" points="92.5,185.5 78.7,171.7 92.5,157.9 95.6,161.1 85,171.7 95.6,182.4 		"/>
	</g>
	<g>
		<path class="st0" d="M16.4,186h28.3v-27H61v70.9H44.6v-30.1H16.4v30.1H0V159h16.4V186z"/>
	</g>
	<g>
		<path class="st0" d="M139.4,209c6.7,6.5,11.1,15.8,11.1,26.8c0,9.5-3.4,19.1-11.1,26.6c-6.6,6.4-15.5,10.4-27.4,10.4
			c-13.3,0-22.3-5.3-27.6-10.4c-6.8-6.4-11.1-15.9-11.1-26.4c0-10.2,4.6-20.5,11-26.9c4.8-4.8,13.6-10.4,27.7-10.4
			C123,198.7,132.3,202.1,139.4,209z M96.4,219.9c-3.1,3-6.3,8.2-6.3,16.1c0,6.5,2.1,11.7,6.5,15.9c4.6,4.4,9.7,5.8,15.2,5.8
			c7.2,0,12.3-2.7,15.7-6.1c2.8-2.7,6.2-7.7,6.2-15.8c0-7.3-3-12.8-6.2-15.9c-3.5-3.4-9.1-6.1-15.6-6.1
			C105.7,213.8,100.2,216.1,96.4,219.9z"/>
	</g>
	<g>
		<path class="st0" d="M183.8,225v57.1h22v13.8h-38.4V225H183.8z"/>
	</g>
	<g>
		<path class="st0" d="M255,202.8v70.9h-16.4v-70.9H255z"/>
	</g>
	<g>
		
			<rect x="16.8" y="201" transform="matrix(0.7071 0.7071 -0.7071 0.7071 162.4892 14.1027)" class="st1" width="94.8" height="4.5"/>
	</g>
	<g>
		<rect x="71.8" y="258.2" class="st6" width="119.8" height="4.5"/>
	</g>
	<polygon class="st6" points="69.1,334.7 64.6,326.7 69.1,318.7 78,318.7 82.5,326.7 78,334.7 	"/>
	<polygon class="st1" points="422,491.7 419.8,487.7 422,483.7 426.5,483.7 428.8,487.7 426.5,491.7 	"/>
	<polygon class="st0" points="437.2,473.7 436,471.7 437.2,469.7 439.4,469.7 440.6,471.7 439.4,473.7 	"/>
	<polygon class="st0" points="369.2,447.7 368,445.7 369.2,443.7 371.4,443.7 372.6,445.7 371.4,447.7 	"/>
	<polygon class="st1" points="143,198.7 140.8,194.7 143,190.7 147.5,190.7 149.8,194.7 147.5,198.7 	"/>
	<polygon class="st1" points="267,326.7 264.8,322.7 267,318.7 271.5,318.7 273.8,322.7 271.5,326.7 	"/>
	<line class="st10" x1="200.6" y1="396.9" x2="315" y2="396.9"/>
	<g>
		<path class="st0" d="M280.1,402.6l-25.4-37.8h19.3l14.2,22l14.2-22h19.3l-25.4,37.8v33.1h-16.4V402.6z"/>
	</g>
	<line class="st10" x1="197.4" y1="361.2" x2="249.1" y2="309.5"/>
	<g>
		<path class="st0" d="M210.7,377h-26.8l-5.4,13.4h-17l28.6-70.9h15l28,70.9h-17L210.7,377z M206.2,364.5l-8.7-23.8l-8.8,23.8H206.2
			z"/>
	</g>
	<line class="st11" x1="200.6" y1="396.9" x2="232.9" y2="364.6"/>
	<polyline class="st10" points="265.6,311.7 248,311.7 248,294.1 	"/>
	<polyline class="st10" points="254.3,323 236.6,323 236.6,305.4 	"/>
	<polyline class="st10" points="243.3,333.7 225.6,333.7 225.6,316 	"/>
	<polyline class="st10" points="347.1,531.5 343.1,514.3 360.2,510.2 	"/>
	<polyline class="st10" points="370.3,436.5 366.2,419.3 383.4,415.2 	"/>
	<g>
		<path class="st0" d="M415,479.3c-0.3-7.1-3.3-10.6-4.7-12.1c-1.6-1.6-3.7-3.3-6.6-3.2c-1.5,0-3.2,0.6-4.5,1.8
			c-1.2,1.2-1.8,2.5-1.7,3.9c0,2.3,1.3,4.5,3.4,9.2l2.3,5.2c1.3,3,2.9,6.9,2.9,10.7c0.1,5.7-2.8,10-5.8,12.9
			c-5.2,5.1-11.6,7.8-16.9,7.8c-9.1,0.1-15.9-6-19.2-9.3c-3.6-3.6-6.2-7.4-7.7-12.1c-1.2-3.8-1.8-9.1-1.7-12.9l14.3-2.1
			c0,2.6,0.2,6.3,0.7,8.5c0.7,3.2,2.1,5.8,4.4,8.2c1.5,1.5,3.9,3.4,7,3.6c1.8,0.2,4-0.3,5.9-2.2c1.7-1.6,2.1-3.4,1.9-5.3
			c-0.2-2.5-2.1-6.7-3-8.7l-2.6-5.6c-1.5-3.2-3.1-7-2.9-11c0.2-5.4,3.4-9.3,5.8-11.7c4.5-4.4,9.6-6.7,15.7-6.7
			c7.1,0,12.3,3.3,16.9,8c3.4,3.5,8.3,9.7,9.7,20L415,479.3z"/>
	</g>
	<line class="st10" x1="87.1" y1="354.7" x2="135.8" y2="403.4"/>
	<g>
		<path class="st0" d="M123.8,319.5c9.4,0,19.2,1.4,28,9.8c6.3,6.1,10.2,14.4,10.2,25.4c0,11.2-3.8,19.2-9.7,25.1
			c-9.8,9.9-22,10.6-28,10.6h-23v-70.9H123.8z M117.8,376.6h4.4c3.4,0,10.8-0.3,16.2-4.8c3.8-3.2,6.9-9.2,6.9-17.1
			c0-7.7-3.1-12.5-5.8-15.3c-5.3-5.3-12.2-6.1-17.2-6.1h-4.4V376.6z"/>
	</g>
	<line class="st11" x1="129.6" y1="354.7" x2="87.1" y2="354.7"/>
	<line class="st10" x1="135.8" y1="403.4" x2="73.8" y2="403.4"/>
	<path class="st6" d="M345.8,450.3c-15.7,22-52.2,33.6-91.9,26.8c-2.9-0.5-5.7-1.1-8.5-1.7c-0.2-3,0.5-6.1,1.9-9
		c2.7,0.6,5.4,1.1,8.1,1.6C291.5,474.2,325.2,466.7,345.8,450.3z"/>
	<path class="st6" d="M342.5,469.9c-15.7,22-52.2,33.6-91.9,26.8c-2.9-0.5-5.7-1.1-8.5-1.7c-0.2-3,0.5-6.1,1.9-9
		c2.7,0.6,5.4,1.1,8.1,1.6C288.2,493.7,321.9,486.2,342.5,469.9z"/>
	<path class="st6" d="M339.4,487.7c-15.7,22-52.2,33.6-91.9,26.8c-2.9-0.5-5.7-1.1-8.5-1.7c-0.2-3,0.5-6.1,1.9-9
		c2.7,0.6,5.4,1.1,8.1,1.6C285.1,511.5,318.9,504,339.4,487.7z"/>
	<line class="st11" x1="321.9" y1="417.9" x2="344.2" y2="440.2"/>
	<line class="st11" x1="356" y1="452" x2="371.6" y2="467.6"/>
	<line class="st10" x1="310.6" y1="441.1" x2="340.6" y2="431.8"/>
	<line class="st10" x1="361.1" y1="457.3" x2="351.6" y2="477.2"/>
	<line class="st10" x1="368.2" y1="421.9" x2="349.6" y2="412.7"/>
	<line class="st11" x1="363.8" y1="413.8" x2="340.6" y2="407.8"/>
</g>
</svg>
