<svg version="1.1" id="Layer_1" xmlns="http://www.w3.org/2000/svg" xmlns:xlink="http://www.w3.org/1999/xlink" x="0px" y="0px"
	 viewBox="0 0 457.5 547.9" style="enable-background:new 0 0 457.5 547.9;" xml:space="preserve">
<style type="text/css">
	.st0{fill:#2C2D60;}
	.st1{fill:none;stroke:#2C2D60;stroke-width:3;stroke-miterlimit:10;}
	.st2{fill:#FFFFFF;}
	.st3{fill:#EFF6DF;}
	.st4{fill:#2FBDBE;}
</style>
<g>
	<g>
		<g>
			
				<rect x="214.1" y="152.1" transform="matrix(0.7071 0.7071 -0.7071 0.7071 175.931 -116.0137)" class="st0" width="27.9" height="4.5"/>
		</g>
	</g>
	<g>
		<g>
			<rect x="166" y="51" class="st0" width="29.2" height="4.5"/>
		</g>
	</g>
	<g>
		<g>
			<path class="st1" d="M216.6,152.9"/>
		</g>
	</g>
	<g>
		<g>
			
				<rect x="311.3" y="110.2" transform="matrix(0.4928 0.8701 -0.8701 0.4928 270.6827 -207.7292)" class="st0" width="4.5" height="36.4"/>
		</g>
	</g>
	<g>
		<g>
			
				<rect x="311.3" y="92.7" transform="matrix(0.4928 0.8701 -0.8701 0.4928 255.4913 -216.5837)" class="st0" width="4.5" height="36.4"/>
		</g>
	</g>
	<g>
		<g>
			<path class="st2" d="M41.8,62.5h28.3v-27h16.4v70.9H70.1V76.3H41.8v30.1H25.5V35.5h16.4V62.5z"/>
		</g>
	</g>
	<g>
		<g>
			
				<rect x="52.7" y="82.4" transform="matrix(0.7071 0.7071 -0.7071 0.7071 88.8093 -45.0359)" class="st0" width="92" height="4.5"/>
		</g>
	</g>
	<g>
		<g>
			<path class="st2" d="M143.7,93h-26.8l-5.4,13.4h-17l28.6-70.9h15l28,70.9h-17L143.7,93z M139.3,80.4l-8.7-23.8l-8.8,23.8H139.3z"
				/>
		</g>
	</g>
	<g>
		<g>
			<path class="st2" d="M304.5,93.5l-25.4-37.8h19.3l14.2,22l14.2-22h19.3l-25.4,37.8v33.1h-16.4V93.5z"/>
		</g>
	</g>
	<g>
		<g>
			<polygon class="st0" points="281.5,135.6 279.3,131.8 281.5,128 285.9,128 288,131.8 285.9,135.6 			"/>
		</g>
	</g>
	<g>
		<g>
			<polygon class="st0" points="83.9,69.6 64.4,69.6 64.4,65.1 79.4,65.1 79.4,50 83.9,50 			"/>
		</g>
	</g>
	<g>
		<g>
			<polygon class="st0" points="275.3,88.4 261.5,74.6 275.3,60.8 278.4,63.9 267.8,74.6 278.4,85.2 			"/>
		</g>
	</g>
	<g>
		<g>
			<polygon class="st0" points="68.6,54.3 49.1,54.3 49.1,49.8 64.1,49.8 64.1,34.7 68.6,34.7 			"/>
		</g>
	</g>
	<g>
		<g>
			<polygon class="st0" points="54.8,19.9 51.5,25.9 54.8,31.9 61.6,31.9 65,25.9 61.6,19.9 			"/>
		</g>
	</g>
	<g>
		<g>
			<polygon class="st3" points="342.3,92.9 338.9,98.9 342.3,104.9 349.1,104.9 352.4,98.9 349.1,92.9 			"/>
		</g>
	</g>
	<g>
		<g>
			<polygon class="st3" points="269.3,210.9 266.8,214.9 269.3,218.9 274.1,218.9 276.5,214.9 274.1,210.9 			"/>
		</g>
	</g>
	<g>
		<g>
			<polygon class="st3" points="41.2,14.9 39.3,17.9 41.2,20.9 44.9,20.9 46.7,17.9 44.9,14.9 			"/>
		</g>
	</g>
	<g>
		<g>
			<polygon class="st3" points="287,118.9 286.1,120.4 287,121.9 288.8,121.9 289.7,120.4 288.8,118.9 			"/>
		</g>
	</g>
	<g>
		<g>
			<polygon class="st3" points="46,298.9 45.1,300.4 46,301.9 47.8,301.9 48.7,300.4 47.8,298.9 			"/>
		</g>
	</g>
	<g>
		<g>
			<polygon class="st3" points="169,341.9 168.1,343.4 169,344.9 170.8,344.9 171.7,343.4 170.8,341.9 			"/>
		</g>
	</g>
	<g>
		<g>
			<polygon class="st3" points="28,270.9 27.1,272.4 28,273.9 29.8,273.9 30.7,272.4 29.8,270.9 			"/>
		</g>
	</g>
	<g>
		<g>
			<polygon class="st3" points="44,129.9 43.1,131.4 44,132.9 45.8,132.9 46.7,131.4 45.8,129.9 			"/>
		</g>
	</g>
	<g>
		<g>
			<polygon class="st0" points="192.9,101.9 188.7,109.4 192.9,116.9 201.2,116.9 205.3,109.4 201.2,101.9 			"/>
		</g>
	</g>
	<g>
		<g>
			<polygon class="st0" points="182.2,119.8 180.1,123.5 182.2,127.3 186.6,127.3 188.8,123.5 186.6,119.8 			"/>
		</g>
	</g>
	<g>
		<g>
			<polygon class="st0" points="283.3,216.9 281.3,220.9 283.3,224.9 287.3,224.9 289.3,220.9 287.3,216.9 			"/>
		</g>
	</g>
	<g>
		<g>
			<polygon class="st0" points="278.1,225.7 277.1,227.5 278.1,229.3 280.2,229.3 281.3,227.5 280.2,225.7 			"/>
		</g>
	</g>
	<g>
		<g>
			<polygon class="st0" points="206.5,333.1 205.5,334.9 206.5,336.7 208.6,336.7 209.7,334.9 208.6,333.1 			"/>
		</g>
	</g>
	<g>
		<g>
			<polygon class="st4" points="288.2,228.2 287.2,230 288.2,231.8 290.3,231.8 291.4,230 290.3,228.2 			"/>
		</g>
	</g>
	<g>
		<g>
			<polygon class="st4" points="149,277.8 152,277 152.9,273.9 150.7,271.7 147.7,272.6 146.8,275.6 			"/>
		</g>
	</g>
	<g>
		<g>
			<polygon class="st4" points="28,306.8 31,306 31.9,302.9 29.7,300.7 26.7,301.6 25.8,304.6 			"/>
		</g>
	</g>
	<g>
		<g>
			<polygon class="st4" points="174,354.8 177,354 177.9,350.9 175.7,348.7 172.7,349.6 171.8,352.6 			"/>
		</g>
	</g>
	<g>
		<g>
			<polygon class="st4" points="315,164.8 318,164 318.9,160.9 316.7,158.7 313.7,159.6 312.8,162.6 			"/>
		</g>
	</g>
	<g>
		<g>
			<polygon class="st0" points="140.8,288.5 142.8,287.9 143.4,285.9 141.9,284.4 139.9,284.9 139.3,287 			"/>
		</g>
	</g>
	<g>
		<g>
			<polygon class="st0" points="191,321.1 193.9,320.3 194.7,317.4 192.6,315.3 189.6,316 188.8,319 			"/>
		</g>
	</g>
	<g>
		<g>
			<polygon class="st0" points="19,321.5 21,320.9 21.5,318.9 20,317.4 18,318 17.5,320 			"/>
		</g>
	</g>
	<g>
		<g>
			<polygon class="st0" points="37.9,307.5 40,306.9 40.5,304.9 39,303.4 37,303.9 36.5,306 			"/>
		</g>
	</g>
	<g>
		<g>
			<polygon class="st0" points="152.3,286.8 154.3,286.2 154.9,284.2 153.4,282.7 151.4,283.3 150.8,285.3 			"/>
		</g>
	</g>
	<g>
		<g>
			<polygon class="st0" points="76.9,380.9 72.7,388.4 76.9,395.9 85.2,395.9 89.3,388.4 85.2,380.9 			"/>
		</g>
	</g>
	<g>
		<g>
			<polygon class="st0" points="66.2,404.8 64.1,408.5 66.2,412.3 70.6,412.3 72.8,408.5 70.6,404.8 			"/>
		</g>
	</g>
	<g>
		<g>
			<polygon class="st0" points="61.9,301.7 59.7,305.4 61.9,309.2 66.2,309.2 68.4,305.4 66.2,301.7 			"/>
		</g>
	</g>
	<g>
		<g>
			
				<rect x="179.6" y="73.9" transform="matrix(0.7071 0.7071 -0.7071 0.7071 111.5169 -116.9318)" class="st0" width="34.7" height="4.5"/>
		</g>
	</g>
	<g>
		<g>
			<path class="st2" d="M199,0c6.2,0,13,0.8,18.6,5.8c6.1,5.3,6.9,12.3,6.9,17.2c0,8.9-3.4,13.9-6.1,16.7
				c-5.6,5.7-13.1,6.3-18.1,6.3h-10v24.9h-16.4V0H199z M190.4,32.6h5.8c2.2,0,6.2-0.1,8.8-2.7c1.5-1.5,2.7-3.9,2.7-7
				c0-3-1.1-5.4-2.7-6.9c-2.4-2.3-6-2.7-9.1-2.7h-5.5V32.6z"/>
		</g>
	</g>
	<g>
		<g>
			
				<rect x="197.2" y="114.9" transform="matrix(0.7071 0.7071 -0.7071 0.7071 152.5511 -133.9281)" class="st0" width="81.4" height="4.5"/>
		</g>
	</g>
	<g>
		<g>
			
				<rect x="214.3" y="70.6" transform="matrix(0.7071 0.7071 -0.7071 0.7071 120.7155 -129.3981)" class="st0" width="4.5" height="20.9"/>
		</g>
	</g>
	<g>
		<g>
			<rect x="222.3" y="72.3" class="st0" width="56.1" height="4.5"/>
		</g>
	</g>
	<g>
		<g>
			<polygon class="st0" points="341.4,207.7 327.6,193.9 341.4,180.1 344.5,183.3 333.9,193.9 344.5,204.5 			"/>
		</g>
	</g>
	<g>
		<g>
			<polygon class="st0" points="322.8,207.7 309,193.9 322.8,180.1 326,183.3 315.4,193.9 326,204.5 			"/>
		</g>
	</g>
	<g>
		<g>
			<polygon class="st0" points="305.1,207.7 291.3,193.9 305.1,180.1 308.3,183.3 297.6,193.9 308.3,204.5 			"/>
		</g>
	</g>
	<g>
		<g>
			<rect x="243.1" y="191.6" class="st0" width="88" height="4.5"/>
		</g>
	</g>
	<g>
		<g>
			<rect x="298.9" y="117.6" class="st4" width="33.3" height="4.5"/>
		</g>
	</g>
	<g>
		<g>
			<path class="st2" d="M249.7,82.8c6.2,0,13,0.8,18.6,5.8c6.1,5.3,6.9,12.3,6.9,17.2c0,8.9-3.4,13.9-6.1,16.7
				c-5.6,5.7-13.1,6.3-18.1,6.3h-10v24.9h-16.4V82.8H249.7z M241.1,115.5h5.8c2.2,0,6.2-0.1,8.8-2.7c1.5-1.5,2.7-3.9,2.7-7
				c0-3-1.1-5.4-2.7-6.9c-2.4-2.3-6-2.7-9.1-2.7h-5.5V115.5z"/>
		</g>
	</g>
	<g>
		<g>
			<rect x="216.6" y="142.9" class="st4" width="51" height="4.5"/>
		</g>
	</g>
	<g>
		<g>
			
				<rect x="161.1" y="40" transform="matrix(0.7071 0.7071 -0.7071 0.7071 108.1004 -90.5063)" class="st4" width="4.5" height="90.5"/>
		</g>
	</g>
	<g>
		<g>
			<polygon class="st0" points="88.2,176 46.7,176 46.7,171.5 88.2,171.5 134,171.4 133.9,175.8 			"/>
		</g>
	</g>
	<g>
		<g>
			<polygon class="st0" points="143.4,187.5 129.6,173.7 143.4,159.9 146.6,163.1 135.9,173.7 146.6,184.4 			"/>
		</g>
	</g>
	<g>
		<g>
			<polygon class="st0" points="126.4,187.5 112.6,173.7 126.4,159.9 129.5,163.1 118.9,173.7 129.5,184.4 			"/>
		</g>
	</g>
	<g>
		<g>
			<polygon class="st0" points="109.4,187.5 95.6,173.7 109.4,159.9 112.6,163.1 101.9,173.7 112.6,184.4 			"/>
		</g>
	</g>
	<g>
		<polygon class="st0" points="86,344.9 81.5,336.9 86,328.9 95,328.9 99.5,336.9 95,344.9 		"/>
	</g>
	<g>
		<polygon class="st0" points="48,275.9 45.5,271.9 48,267.9 53,267.9 55.5,271.9 53,275.9 		"/>
	</g>
	<g>
		<polygon class="st0" points="7,139.9 4.5,135.9 7,131.9 12,131.9 14.5,135.9 12,139.9 		"/>
	</g>
	<g>
		<polygon class="st4" points="439,507.9 436.7,503.9 439,499.9 443.5,499.9 445.7,503.9 443.5,507.9 		"/>
	</g>
	<g>
		<polygon class="st2" points="454.1,489.9 453,487.9 454.1,485.9 456.4,485.9 457.5,487.9 456.4,489.9 		"/>
	</g>
	<g>
		<polygon class="st2" points="386.1,463.9 385,461.9 386.1,459.9 388.4,459.9 389.5,461.9 388.4,463.9 		"/>
	</g>
	<g>
		<polygon class="st4" points="160,200.9 157.7,196.9 160,192.9 164.5,192.9 166.7,196.9 164.5,200.9 		"/>
	</g>
	<g>
		<polygon class="st4" points="284,342.9 281.7,338.9 284,334.9 288.5,334.9 290.7,338.9 288.5,342.9 		"/>
	</g>
	<g>
		
			<rect x="238.2" y="286.2" transform="matrix(0.7071 0.7071 -0.7071 0.7071 298.5951 -75.3354)" class="st0" width="4" height="73.1"/>
	</g>
	<g>
		
			<rect x="231.7" y="374" transform="matrix(0.7071 0.7071 -0.7071 0.7071 348.9977 -49.0288)" class="st4" width="4" height="45.6"/>
	</g>
	<g>
		<rect x="8" y="278.8" transform="matrix(0.7071 0.7071 -0.7071 0.7071 208.6032 78.1586)" class="st4" width="4" height="24.2"/>
	</g>
	<g>
		<rect x="45" y="325.5" transform="matrix(0.7071 0.7071 -0.7071 0.7071 248.3054 55.6062)" class="st4" width="24.2" height="4"/>
	</g>
	<g>
		<polygon class="st0" points="282.6,301.2 262.9,301.2 262.9,281.5 266.9,281.5 266.9,297.2 282.6,297.2 		"/>
	</g>
	<g>
		<polygon class="st0" points="271.2,312.5 251.6,312.5 251.6,292.8 255.6,292.8 255.6,308.5 271.2,308.5 		"/>
	</g>
	<g>
		<polygon class="st0" points="260.2,323.1 240.6,323.1 240.6,303.5 244.6,303.5 244.6,319.1 260.2,319.1 		"/>
	</g>
	<g>
		<polygon class="st0" points="362.1,547.9 357.6,528.8 376.7,524.3 377.6,528.2 362.4,531.8 366,547 		"/>
	</g>
	<g>
		<polygon class="st0" points="385.3,452.9 380.7,433.8 399.9,429.3 400.8,433.2 385.6,436.8 389.2,452 		"/>
	</g>
	<g>
		<rect x="104.1" y="362.7" class="st4" width="65.9" height="4"/>
	</g>
	<g>
		<rect x="90.7" y="411.4" class="st4" width="62" height="4"/>
	</g>
	<g>
		
			<rect x="334.2" y="443" transform="matrix(0.7071 0.7071 -0.7071 0.7071 417.1931 -117.1396)" class="st4" width="31.5" height="4"/>
	</g>
	<g>
		
			<rect x="369.7" y="473.8" transform="matrix(0.7071 0.7071 -0.7071 0.7071 447.9557 -129.882)" class="st4" width="22.1" height="4"/>
	</g>
	<g>
		
			<rect x="340.5" y="436.7" transform="matrix(0.2964 0.9551 -0.9551 0.2964 673.1682 -8.7829)" class="st0" width="4" height="31.5"/>
	</g>
	<g>
		
			<rect x="371.3" y="472.2" transform="matrix(0.9041 0.4274 -0.4274 0.9041 242.3332 -113.1868)" class="st0" width="4" height="22.1"/>
	</g>
	<g>
		
			<rect x="365.5" y="431.3" transform="matrix(0.8977 0.4407 -0.4407 0.8977 229.3851 -121.2663)" class="st0" width="20.7" height="4"/>
	</g>
	<g>
		
			<rect x="357.2" y="424.8" transform="matrix(0.9687 0.2481 -0.2481 0.9687 117.4415 -78.2551)" class="st4" width="23.9" height="4"/>
	</g>
	<g>
		<path class="st2" d="M10,232.3v-70.9h14.2l38.5,45.7v-45.7H79v70.9H64.8l-38.5-45.9v45.9H10z"/>
	</g>
	<g>
		<path class="st2" d="M34.8,396.8L9.4,358.9h19.3l14.2,22l14.2-22h19.3l-25.4,37.8v33.1H34.8V396.8z"/>
	</g>
	<g>
		<path class="st2" d="M154.1,345h-23.7v13.7h22.5v13.8h-22.5v15.7h23.7v13.8H114v-70.9h40.1V345z"/>
	</g>
	<g>
		<path class="st2" d="M208.1,420.4h-26.8l-5.4,13.4h-17l28.6-70.9h15l28,70.9h-17L208.1,420.4z M203.7,407.9l-8.7-23.8l-8.8,23.8
			H203.7z"/>
	</g>
	<g>
		<path class="st2" d="M279.7,336.1c9,0,14.7,3,18.1,6.2c3,2.9,6.2,8,6.2,15.8c0,4.5-1,10-5.5,14.5c-2.4,2.3-6,4.5-9.9,5.4l21.8,29
			h-20L271.2,379V407h-16.4v-70.9H279.7z M271.2,368.3h3.7c3,0,7-0.3,9.8-3.1c1.2-1.2,2.7-3.4,2.7-6.9c0-4-1.9-6.2-3.3-7.2
			c-2.7-2-6.9-2.2-9-2.2h-3.8V368.3z"/>
	</g>
	<g>
		<path class="st2" d="M136.6,210.7h-23.7v13.7h22.5v13.8h-22.5V254h23.7v13.8H96.5v-70.9h40.1V210.7z"/>
	</g>
	<g>
		<g>
			
				<rect x="91.4" y="223.1" transform="matrix(0.7071 0.7071 -0.7071 0.7071 195.1924 3.2642)" class="st0" width="4.5" height="28.3"/>
		</g>
	</g>
	<g>
		<g>
			<rect x="81.5" y="244.4" class="st4" width="99.5" height="4.5"/>
		</g>
	</g>
	<g>
		<path class="st2" d="M166.5,221.4l15.1,47l15.1-47h11.3l15.1,47l15.1-47h17L231,292.3h-13.8l-14.9-43l-14.9,43h-13.8l-24.1-70.9
			H166.5z"/>
	</g>
	<g>
		<g>
			
				<rect x="34.3" y="199.3" transform="matrix(0.7071 0.7071 -0.7071 0.7071 164.4733 5.9338)" class="st4" width="81.6" height="4.5"/>
		</g>
	</g>
	<g>
		<g>
			
				<rect x="167.8" y="240.7" transform="matrix(0.7071 0.7071 -0.7071 0.7071 232.5931 -44.4844)" class="st0" width="4.5" height="35.5"/>
		</g>
	</g>
	<g>
		<rect x="94" y="387.1" transform="matrix(0.7071 0.7071 -0.7071 0.7071 312.7262 23.14)" class="st0" width="68.8" height="4"/>
	</g>
	<g>
		<path class="st0" d="M185.5,168.4h-21l8.3-9c1.4-1.6,3.6-4.3,4.5-5.6c0.6-1,1.6-2.8,1.6-4.7c0-1-0.4-2.1-1.1-2.7
			c-0.5-0.5-1.4-0.8-2.5-0.8c-1.2,0-2,0.4-2.5,1c-0.7,0.8-1.2,2.3-1.2,3.4h-6.4c0.2-2.4,1.2-5.1,2.8-6.9c1.3-1.4,3.7-2.8,7.6-2.8
			c4,0,6.1,1.6,7.1,2.6c1.5,1.5,2.6,3.8,2.6,6.6c0,2.4-0.7,4.2-2.1,6.1c-1.2,1.7-2.6,3.1-4.4,4.7l-2.9,2.8h9.5V168.4z"/>
	</g>
	<g>
		<path class="st0" d="M218.1,201.9c-1.6,1.6-4,2.8-7.4,2.8c-3.3,0-5.7-1.2-7.3-2.8c-2.7-2.6-4-6.8-4-11.5c0-4.7,1.3-9,4-11.5
			c1.6-1.6,4-2.8,7.3-2.8c3.4,0,5.8,1.3,7.4,2.8c2.7,2.6,4,6.8,4,11.5C222.1,195.1,220.8,199.2,218.1,201.9z M208.2,182.5
			c-2,2-2.3,5.9-2.3,7.9c0,2.1,0.4,6,2.3,7.9c0.7,0.7,1.5,1,2.6,1c1.1,0,1.8-0.3,2.6-1c1.9-1.9,2.3-5.8,2.3-7.9
			c0-1.9-0.3-5.9-2.3-7.9c-0.7-0.7-1.5-1-2.6-1C209.7,181.4,208.9,181.8,208.2,182.5z"/>
	</g>
	<g>
		<path class="st0" d="M281.3,253.2h-3.9v-5.4h10.3v27.5h-6.4V253.2z"/>
	</g>
	<g>
		<path class="st0" d="M324.8,282.2l-7.3,9c0.8-0.3,1.7-0.5,2.9-0.5c3.5,0,5.6,1.4,6.8,2.6c1,1,2.4,3,2.4,6.4c0,2.6-0.8,5.4-2.6,7.4
			c-2.5,2.7-6,3.1-8.5,3.1c-2.5,0-6.2-0.2-8.9-3.2c-1.8-1.9-2.4-4.2-2.4-6.7c0-4.4,2.1-7.5,4.4-10.6l6.3-8.3L324.8,282.2z
			 M321.7,303.8c0.7-0.7,1.4-1.9,1.4-3.6c0-1.6-0.7-2.7-1.4-3.4c-1-0.9-2.2-1.2-3.3-1.2c-1.2,0-2.4,0.3-3.3,1.2
			c-0.5,0.5-1.4,1.6-1.4,3.5c0,1.3,0.4,2.5,1.4,3.4c0.8,0.7,1.9,1.3,3.3,1.3C320.1,305.1,321.1,304.4,321.7,303.8z"/>
	</g>
	<g>
		<rect x="217.6" y="421.8" class="st0" width="114.4" height="4"/>
	</g>
	<g>
		<g>
			<path class="st0" d="M333.6,446l-3.5,5.2l-0.9-3.5c-0.2-0.6-0.5-1.6-0.6-2c-0.1-0.3-0.4-0.9-0.9-1.2c-0.3-0.2-0.6-0.2-0.8-0.2
				c-0.2,0.1-0.4,0.2-0.6,0.5c-0.2,0.3-0.2,0.6-0.2,0.8c0.1,0.3,0.4,0.7,0.6,0.8l-1,1.6c-0.6-0.4-1.1-1.1-1.2-1.8
				c-0.1-0.6-0.1-1.4,0.5-2.3c0.7-1,1.4-1.2,1.8-1.3c0.6-0.1,1.3,0,2.1,0.5c0.6,0.4,0.9,0.9,1.2,1.5c0.2,0.6,0.3,1.2,0.4,1.9
				l0.2,1.2l1.6-2.3L333.6,446z"/>
		</g>
		<g>
			<path class="st0" d="M375.1,462.3c-0.5,0.5-1.2,0.8-2.2,0.8c-1,0-1.7-0.4-2.2-0.8c-0.8-0.8-1.2-2-1.2-3.4c0-1.4,0.4-2.7,1.2-3.4
				c0.5-0.5,1.2-0.8,2.2-0.8c1,0,1.7,0.4,2.2,0.8c0.8,0.8,1.2,2,1.2,3.4C376.3,460.2,375.9,461.5,375.1,462.3z M372.2,456.5
				c-0.6,0.6-0.7,1.8-0.7,2.3c0,0.6,0.1,1.8,0.7,2.4c0.2,0.2,0.4,0.3,0.8,0.3c0.3,0,0.5-0.1,0.8-0.3c0.6-0.6,0.7-1.7,0.7-2.4
				c0-0.6-0.1-1.8-0.7-2.3c-0.2-0.2-0.4-0.3-0.8-0.3C372.6,456.2,372.4,456.3,372.2,456.5z"/>
		</g>
		<g>
			<path class="st0" d="M404.7,488.1h-1.3v-1.8h3.5v9.3h-2.2V488.1z"/>
		</g>
		<g>
			<path class="st0" d="M432.5,503.2h-2.6l-0.2,1c0.2,0,0.4-0.1,0.6-0.1c0.9,0,1.6,0.3,2,0.8c0.4,0.4,0.7,1,0.7,1.9
				c0,1-0.4,1.7-0.8,2c-0.7,0.7-1.6,0.8-2.4,0.8c-0.7,0-1.6-0.1-2.6-0.9l0.4-1.7c0.2,0.2,0.5,0.5,0.8,0.6c0.3,0.2,0.7,0.3,1.2,0.3
				c0.4,0,0.8-0.1,1.1-0.3c0.2-0.2,0.5-0.5,0.5-1c0-0.5-0.2-0.8-0.4-0.9c-0.1-0.1-0.5-0.4-1.3-0.4c-0.7,0-1.2,0.2-1.6,0.4l0.8-4.2
				h3.9V503.2z"/>
		</g>
	</g>
</g>
</svg>
