<?xml version="1.0" encoding="utf-8"?>
<!-- Generator: Adobe Illustrator 19.1.0, SVG Export Plug-In . SVG Version: 6.00 Build 0)  -->
<svg version="1.1" id="Layer_1" xmlns="http://www.w3.org/2000/svg" xmlns:xlink="http://www.w3.org/1999/xlink" x="0px" y="0px"
	 viewBox="0 0 77.2 600" style="enable-background:new 0 0 77.2 600;" xml:space="preserve">
<style type="text/css">
	.st0{fill:#FFFFFF;}
	.st1{fill:#2FBDBE;}
	.st2{opacity:0.4;fill:#2FBDBE;}
	.st3{fill:none;stroke:#2C2D60;stroke-width:3;stroke-miterlimit:10;}
	.st4{fill:none;stroke:#FFFFFF;stroke-width:4;stroke-miterlimit:10;}
	.st5{fill:#EFF6DF;}
	.st6{fill:#2C2D60;}
	.st7{fill:none;stroke:#2FBDBE;stroke-width:3;stroke-miterlimit:10;}
	.st8{fill:none;stroke:#FFFFFF;stroke-width:2;stroke-miterlimit:10;}
	.st9{opacity:0.6;fill:#2FBDBE;}
	.st10{fill:none;stroke:#2C2D60;stroke-width:4;stroke-miterlimit:10;}
	.st11{fill:none;stroke:#2FBDBE;stroke-width:4;stroke-miterlimit:10;}
	.st12{fill:none;stroke:#2B2C60;stroke-width:3;stroke-miterlimit:10;}
	.st13{fill:none;stroke:#2FBDBE;stroke-width:2;stroke-miterlimit:10;}
	.st14{fill:#EAEAEA;}
</style>
<g>
	<polyline class="st3" points="13.9,362.6 32.5,362.6 32.5,343.9 	"/>
	<line class="st3" x1="56.5" y1="430.1" x2="17.7" y2="391.4"/>
	<line class="st3" x1="45.6" y1="376.5" x2="17.7" y2="348.5"/>
	<line class="st3" x1="54.9" y1="97.4" x2="16.1" y2="136.1"/>
	<line class="st3" x1="44" y1="151" x2="16.1" y2="178.9"/>
	<line class="st4" x1="31.6" y1="442.1" x2="31.6" y2="89.1"/>
	<polygon class="st5" points="64.6,121 61,114.5 64.6,108 71.9,108 75.6,114.5 71.9,121 	"/>
	<polygon class="st6" points="31.5,16 27,8 31.5,0 40.5,0 45,8 40.5,16 	"/>
	<polygon class="st6" points="46.3,140.2 44,136.1 46.3,132.1 51,132.1 53.4,136.1 51,140.2 	"/>
	<polyline class="st3" points="54.9,97.4 54.9,85.9 54.7,36.6 	"/>
	<polyline class="st3" points="68.3,24.9 55.1,38.1 41.9,24.9 	"/>
	<polyline class="st3" points="68.3,43.3 55.1,56.5 41.9,43.3 	"/>
	<polyline class="st3" points="68.3,61.6 55.1,74.8 41.9,61.6 	"/>
	<line class="st7" x1="16.1" y1="136.1" x2="44" y2="151"/>
	<polygon class="st5" points="66.2,407 62.6,413 66.2,419 73.5,419 77.2,413 73.5,407 	"/>
	<polygon class="st5" points="13,587 9.3,593.5 13,600 20.3,600 23.9,593.5 20.3,587 	"/>
	<polygon class="st5" points="37.9,560 33.2,569 37.9,578 47.1,578 51.8,569 47.1,560 	"/>
	<polygon class="st5" points="17.6,547 15.6,550 17.6,553 21.6,553 23.6,550 21.6,547 	"/>
	<polygon class="st5" points="24.2,542 23.2,543.5 24.2,545 26.1,545 27.1,543.5 26.1,542 	"/>
	<polygon class="st6" points="33.1,511 28.7,519.5 33.1,528 42.1,528 46.6,519.5 42.1,511 	"/>
	<polygon class="st6" points="48,387.3 45.6,391.4 48,395.4 52.7,395.4 55,391.4 52.7,387.3 	"/>
	<polyline class="st3" points="56.5,428.8 56.5,440.2 56.3,490.9 	"/>
	<polyline class="st3" points="69.9,502.6 56.7,489.4 43.5,502.6 	"/>
	<polyline class="st3" points="69.9,484.2 56.7,471 43.5,484.2 	"/>
	<polyline class="st3" points="69.9,465.9 56.7,452.7 43.5,465.9 	"/>
	<line class="st7" x1="17.7" y1="391.4" x2="45.6" y2="376.5"/>
	<polyline class="st3" points="0,348.7 18.7,348.7 18.7,330.1 	"/>
	<line class="st13" x1="48.7" y1="344" x2="48.7" y2="187.3"/>
	<line class="st8" x1="14.2" y1="115.5" x2="14.2" y2="49.9"/>
	<line class="st8" x1="62.6" y1="558.9" x2="62.6" y2="535.2"/>
</g>
</svg>
