<?xml version="1.0" encoding="utf-8"?>
<!-- Generator: Adobe Illustrator 19.1.0, SVG Export Plug-In . SVG Version: 6.00 Build 0)  -->
<svg version="1.1" id="Layer_1" xmlns="http://www.w3.org/2000/svg" xmlns:xlink="http://www.w3.org/1999/xlink" x="0px" y="0px"
	 viewBox="0 0 42 42" style="enable-background:new 0 0 42 42;" xml:space="preserve">
<style type="text/css">
	.st0{fill:#EFF6DF;}
	.st1{opacity:0.5;fill:#FFFFFF;}
	.st2{fill:none;stroke:#EFF6DF;stroke-miterlimit:10;}
</style>
<path class="st0" d="M21,0C9.4,0,0,9.4,0,21c0,11.6,9.4,21,21,21c11.6,0,21-9.4,21-21C42,9.4,32.6,0,21,0z M21,9.8
	c1.4,0,2.6,1.2,2.6,2.6c0,1.4-1.2,2.6-2.6,2.6s-2.6-1.2-2.6-2.6S19.6,9.7,21,9.8z M12,15.6c-0.8-1.2-0.4-2.8,0.8-3.6
	c1.2-0.8,2.8-0.4,3.6,0.8c0.8,1.2,0.4,2.8-0.8,3.6C14.3,17.2,12.8,16.9,12,15.6z M20.9,33c-4.4,0-7.9-3.5-7.9-7.9
	c0-4.4,3.5-7.9,7.9-7.9s7.9,3.5,7.9,7.9C28.8,29.5,25.3,33,20.9,33z M30,15.7c-0.8,1.2-2.4,1.6-3.6,0.8c-1.2-0.8-1.6-2.4-0.8-3.6
	c0.8-1.2,2.4-1.6,3.6-0.8S30.8,14.5,30,15.7z"/>
</svg>
