<?xml version="1.0" encoding="utf-8"?>
<!-- Generator: Adobe Illustrator 19.1.0, SVG Export Plug-In . SVG Version: 6.00 Build 0)  -->
<svg version="1.1" id="Layer_1" xmlns="http://www.w3.org/2000/svg" xmlns:xlink="http://www.w3.org/1999/xlink" x="0px" y="0px"
	 viewBox="0 0 42 42" style="enable-background:new 0 0 42 42;" xml:space="preserve">
<style type="text/css">
	.st0{fill:#FFFFFF;}
</style>
<path class="st0" d="M21,0C9.4,0,0,9.4,0,21c0,11.6,9.4,21,21,21c11.6,0,21-9.4,21-21C42,9.4,32.6,0,21,0z M31.8,18.3
	c0,0.5-0.4,0.9-0.9,0.9h-6.3c-0.4,0-0.7-0.2-0.8-0.6c-0.1-0.3-0.1-0.7,0.2-1l1.9-1.9c-1.3-1.2-3.1-1.9-4.9-1.9c-4,0-7.2,3.2-7.2,7.2
	s3.2,7.2,7.2,7.2c2.2,0,4.3-1,5.7-2.8c0.1-0.1,0.2-0.2,0.3-0.2c0.1,0,0.3,0,0.4,0.1l1.9,1.9c0.2,0.2,0.2,0.4,0,0.6
	c-2.1,2.5-5.1,3.9-8.3,3.9c-6,0-10.8-4.9-10.8-10.8S15,10.2,21,10.2c2.8,0,5.5,1.1,7.5,3l1.8-1.8c0.3-0.3,0.7-0.3,1-0.2
	c0.3,0.1,0.6,0.5,0.6,0.8V18.3z"/>
</svg>
