<?xml version="1.0" encoding="utf-8"?>
<!-- Generator: Adobe Illustrator 19.1.0, SVG Export Plug-In . SVG Version: 6.00 Build 0)  -->
<svg version="1.1" id="Layer_1" xmlns="http://www.w3.org/2000/svg" xmlns:xlink="http://www.w3.org/1999/xlink" x="0px" y="0px"
	 viewBox="0 0 153.4 27.1" style="enable-background:new 0 0 153.4 27.1;" xml:space="preserve">
<style type="text/css">
	.st0{fill:#EFF6DF;}
	.st1{opacity:0.5;fill:#FFFFFF;}
	.st2{fill:none;stroke:#EFF6DF;stroke-miterlimit:10;}
</style>
<polygon class="st0" points="21.7,4.3 20.1,2.7 18.3,4.5 18.3,0 16.1,0 16.1,4.5 14.3,2.7 12.7,4.3 14.5,6.1 10,6.1 10,8.3 
	14.5,8.3 12.7,10.1 14.3,11.7 16.1,9.9 16.1,14.4 18.3,14.4 18.3,9.9 20.1,11.7 21.7,10.1 19.9,8.3 24.4,8.3 24.4,6.1 19.9,6.1 "/>
<polygon class="st0" points="16.9,20.9 15.9,19.9 14.9,21 14.9,18.3 13.5,18.3 13.5,21 12.4,19.9 11.4,20.9 12.5,22 9.8,22 
	9.8,23.4 12.5,23.4 11.4,24.4 12.4,25.4 13.5,24.3 13.5,27.1 14.9,27.1 14.9,24.3 15.9,25.4 16.9,24.4 15.8,23.4 18.6,23.4 18.6,22 
	15.8,22 "/>
<polygon class="st0" points="7.1,13.5 6.2,12.5 5.1,13.6 5.1,10.8 3.7,10.8 3.7,13.6 2.6,12.5 1.7,13.5 2.7,14.6 0,14.6 0,15.9 
	2.7,15.9 1.7,17 2.6,18 3.7,16.9 3.7,19.7 5.1,19.7 5.1,16.9 6.2,18 7.1,17 6.1,15.9 8.8,15.9 8.8,14.6 6.1,14.6 "/>
<rect x="29.6" y="13.5" class="st1" width="90.2" height="4"/>
<g>
	<polygon class="st0" points="147.9,25.7 145.1,24.6 149.1,13.7 140.6,13.7 145.1,0.8 147.9,1.7 144.8,10.7 153.4,10.7 	"/>
</g>
<polygon class="st0" points="138.8,8.4 134.6,8.4 136.9,6.2 136.2,5.5 133.9,7.7 133.9,3.6 132.9,3.6 132.9,7.7 130.7,5.5 130,6.2 
	132.2,8.4 128.1,8.4 128.1,9.4 132.2,9.4 130,11.7 130.7,12.4 132.9,10.2 132.9,14.3 133.9,14.3 133.9,10.2 136.2,12.4 136.9,11.7 
	134.6,9.4 138.8,9.4 "/>
<polygon class="st0" points="141.9,18.5 140,18.5 140.9,17.6 140.2,16.9 139.3,17.8 139.3,15.9 138.3,15.9 138.3,17.8 137.4,16.9 
	136.7,17.6 137.6,18.5 135.7,18.5 135.7,19.5 137.6,19.5 136.7,20.4 137.4,21.1 138.3,20.2 138.3,22.1 139.3,22.1 139.3,20.2 
	140.2,21.1 140.9,20.4 140,19.5 141.9,19.5 "/>
</svg>
