<?xml version="1.0" encoding="utf-8"?>
<!-- Generator: Adobe Illustrator 19.1.0, SVG Export Plug-In . SVG Version: 6.00 Build 0)  -->
<svg version="1.1" id="Layer_1" xmlns="http://www.w3.org/2000/svg" xmlns:xlink="http://www.w3.org/1999/xlink" x="0px" y="0px"
	 viewBox="0 0 42 42" style="enable-background:new 0 0 42 42;" xml:space="preserve">
<style type="text/css">
	.st0{fill:#FFFFFF;}
</style>
<g>
	<path class="st0" d="M22.1,15.7l-3.8,9.6c0.5,0,1,0,1.5,0l4.7-11.8C23.7,14.3,22.9,15,22.1,15.7z"/>
	<path class="st0" d="M21,0C9.4,0,0,9.4,0,21c0,11.6,9.4,21,21,21c11.6,0,21-9.4,21-21C42,9.4,32.6,0,21,0z M27.2,30.2
		c-0.3,0.1-0.6,0-0.9-0.2c-1.7-1.5-3.3-3-5-4.5c-0.1-0.1-0.3-0.2-0.5-0.2c-0.3,0-0.7,0-1,0l-3.1,7.8l-1.3-0.5l2.9-7.2
		c-0.8,0-1.7,0-2.5,0c-0.6,0-0.9-0.3-0.9-0.9c0-2.3,0-4.6,0-7c0-0.6,0.3-0.9,0.9-0.9c1.7,0,3.4,0,5,0c0.2,0,0.4-0.1,0.5-0.2
		c0.3-0.2,0.5-0.5,0.8-0.7l3.1-7.9l1.3,0.5l-2.1,5.2c0.6-0.5,1.2-1.1,1.8-1.6c0.4-0.4,1-0.3,1.2,0.2c0,0.1,0.1,0.3,0.1,0.4
		c0,2.8,0,5.6,0,8.5c0,2.8,0,5.6,0,8.4C27.6,29.8,27.5,30.1,27.2,30.2z"/>
</g>
</svg>
