<?xml version="1.0" encoding="utf-8"?>
<!-- Generator: Adobe Illustrator 19.1.0, SVG Export Plug-In . SVG Version: 6.00 Build 0)  -->
<svg version="1.1" id="Layer_1" xmlns="http://www.w3.org/2000/svg" xmlns:xlink="http://www.w3.org/1999/xlink" x="0px" y="0px"
	 viewBox="0 0 42 42" style="enable-background:new 0 0 42 42;" xml:space="preserve">
<style type="text/css">
	.st0{fill:#FFFFFF;}
</style>
<path class="st0" d="M21,0C9.4,0,0,9.4,0,21c0,11.6,9.4,21,21,21c11.6,0,21-9.4,21-21C42,9.4,32.6,0,21,0z M23.9,30.2
	c-0.3,0.1-0.6,0-0.9-0.2c-1.7-1.5-3.3-3-5-4.5c-0.1-0.1-0.3-0.2-0.5-0.2c-1.7,0-3.4,0-5,0c-0.6,0-0.9-0.3-0.9-0.9c0-2.3,0-4.6,0-7
	c0-0.6,0.3-0.9,0.9-0.9c1.7,0,3.4,0,5,0c0.2,0,0.4-0.1,0.5-0.2c1.7-1.5,3.3-3,5-4.5c0.4-0.4,1-0.3,1.2,0.2c0,0.1,0.1,0.3,0.1,0.4
	c0,2.8,0,5.6,0,8.5c0,2.8,0,5.6,0,8.4C24.3,29.8,24.2,30.1,23.9,30.2z M27.3,25.8l-0.7-0.7c1.1-1.1,1.7-2.5,1.7-4.1s-0.6-3-1.7-4.1
	l0.7-0.7c1.3,1.3,2,3,2,4.8S28.6,24.5,27.3,25.8z M30.8,30.1l-0.7-0.7c2.2-2.2,3.5-5.2,3.5-8.4c0-3.2-1.2-6.2-3.5-8.4l0.7-0.7
	c2.4,2.4,3.8,5.7,3.8,9.1C34.6,24.4,33.2,27.7,30.8,30.1z"/>
</svg>
