# 3ds Max Wavefront OBJ Exporter v0.97b - (c)2007 guruware
# File Created: 11.11.2015 13:09:51

mtllib floe_01.mtl

#
# object Box001_frag_203
#

v  -231.5064 2.2735 -288.2397
v  -216.0142 -51.1772 -258.5306
v  -248.6620 -51.1772 -86.5400
v  -267.8275 2.2735 -96.8980
v  -232.7915 -51.1772 42.6201
v  -250.7127 2.2735 42.3884
v  -188.3795 -51.1772 188.2435
v  -201.8037 2.2735 202.7571
v  85.4385 2.2735 241.6532
v  72.6359 -51.1772 223.1072
v  170.1363 -51.1772 -45.7129
v  192.9829 2.2735 -54.8598
v  37.6019 -51.1772 247.4120
v  -33.9608 -51.1772 240.2051
v  101.6874 -51.1772 -192.3957
v  118.0315 2.2735 -215.4776
v  47.4792 2.2735 267.9874
v  -31.6294 2.2735 260.0206
# 18 vertices

vn -0.7548 -0.6401 -0.1433
vn -0.8083 -0.5803 0.0993
vn -0.7891 -0.5652 0.2407
vn 0.7569 -0.5931 0.2745
vn 0.0000 -1.0000 -0.0000
vn 0.1412 -0.7210 -0.6784
vn 0.6453 -0.7021 -0.3011
vn 0.0000 1.0000 0.0000
vn 0.0000 1.0000 -0.0000
vn -0.2584 -0.5863 0.7678
vn -0.0789 -0.6159 0.7839
vn 0.4228 -0.6707 0.6094
# 12 vertex normals

vt 1.3795 0.4589 0.5495
vt 1.3335 0.4518 0.4505
vt 1.1680 0.2737 0.4505
vt 1.1953 0.2608 0.5495
vt 1.0104 0.1851 0.4505
vt 1.0254 0.1653 0.5495
vt 0.8110 0.1150 0.4505
vt 0.8058 0.0880 0.5495
vt 0.5258 0.3773 0.5495
vt 0.5571 0.3783 0.4505
vt 0.7776 0.7086 0.4505
vt 0.7690 0.7417 0.5495
vt 0.5588 0.3191 0.4505
vt 0.6257 0.2449 0.4505
vt 0.9980 0.7528 0.4505
vt 1.0104 0.7900 0.5495
vt 0.4724 0.3132 0.5495
vt 0.4742 0.3773 0.5495
vt 0.2310 0.7417 0.5495
vt -0.0254 0.1653 0.5495
vt -0.0104 0.7900 0.5495
vt -0.3795 0.4589 0.5495
vt -0.1953 0.2608 0.5495
vt 0.1942 0.0880 0.5495
vt 0.3984 0.2312 0.5495
vt 0.6016 0.2312 0.5495
vt 0.5276 0.3132 0.5495
# 27 texture coords

g Box001_frag_203
usemtl wire_227142169
s off
f 1/1/1 2/2/1 3/3/1 4/4/1 
f 4/4/2 3/3/2 5/5/2 6/6/2 
f 5/5/3 7/7/3 8/8/3 6/6/3 
f 9/9/4 10/10/4 11/11/4 12/12/4 
s 2
f 10/10/5 13/13/5 14/14/5 5/5/5 
f 14/14/5 7/7/5 5/5/5 
f 5/5/5 3/3/5 2/2/5 10/10/5 
f 10/10/5 2/2/5 15/15/5 11/11/5 
s off
f 2/2/6 1/1/6 16/16/6 15/15/6 
f 15/15/7 16/16/7 12/12/7 11/11/7 
s 4
f 17/17/8 9/18/8 12/19/9 6/20/9 
f 12/19/9 16/21/9 1/22/9 6/20/9 
f 1/22/9 4/23/9 6/20/9 
f 17/17/8 6/20/9 8/24/9 18/25/9 
s off
f 7/7/10 14/14/10 18/26/10 8/8/10 
f 18/26/11 14/14/11 13/13/11 17/27/11 
f 10/10/12 9/9/12 17/27/12 13/13/12 
# 15 polygons - 2 triangles

