# 3ds Max Wavefront OBJ Exporter v0.97b - (c)2007 guruware
# File Created: 11.11.2015 13:09:33

mtllib glacier_02.mtl

#
# object Box012
#

v  2724.2048 -2451.4175 -7950.4429
v  2792.2000 -2451.4175 -7900.7856
v  2996.4941 -2451.4175 -7963.6479
v  2775.5288 -2451.4175 -7727.8325
v  3653.0950 -2450.0757 -7941.1772
v  3096.2285 -2323.0254 -7770.5127
v  3061.5701 -2275.8328 -7639.5801
v  2871.8608 -2451.4175 -7612.7476
v  3144.8872 2274.7051 -8033.0991
v  3215.6270 2369.0574 -8118.8052
v  3073.6194 2479.7949 -8283.6074
v  3035.7834 2510.9426 -8322.8408
v  2945.4956 2510.9426 -8283.6436
v  2933.1042 2491.7070 -8307.9727
v  2985.2073 2433.5815 -8159.2417
v  3647.7227 -540.7219 -6809.4824
v  3705.4150 -194.1509 -6606.0820
v  2533.4551 -84.2569 -6566.7847
v  2602.4927 -716.3064 -6824.0137
v  4212.3706 -688.2438 -8975.0840
v  4627.6357 -62.6168 -9139.4268
v  4321.1333 -107.9799 -7783.5415
v  4060.1704 -587.9143 -7798.5933
v  2061.0693 -716.3064 -8879.5137
v  1840.6666 -84.2569 -9093.5820
v  3591.1565 -84.2569 -9619.5156
v  3475.5144 -716.3064 -9400.9883
v  1984.0505 -716.3064 -8587.5576
v  1752.2220 -84.2569 -8705.2471
v  1898.9807 57.6162 -7037.9990
v  1668.6284 -84.2569 -7313.9072
v  2594.4641 57.6162 -6438.2275
v  3566.6187 57.6162 -6444.0557
v  3542.5786 324.5567 -7456.7007
v  2619.9946 324.5567 -7434.4326
v  4085.7500 -14.2307 -7764.7148
v  3740.9697 324.5567 -7964.6904
v  3906.6294 192.6143 -9051.0566
v  3754.9426 328.7273 -8874.4180
v  3380.4731 195.2617 -9181.6367
v  2037.5435 195.2617 -8918.6777
v  2215.2153 665.7179 -8736.3418
v  3245.8682 324.5567 -8936.9902
v  1997.2788 195.2617 -8539.1797
v  2208.6287 665.7179 -8550.4688
v  2271.7344 665.7179 -7984.0366
v  3367.0940 1004.4401 -7718.6392
v  2718.3596 1004.4401 -7808.2061
v  3541.9868 908.7631 -8077.0674
v  3387.4697 994.4850 -8697.9131
v  2395.8777 1291.6161 -8599.5625
v  3233.4150 1004.4401 -8734.9834
v  2316.1370 1220.2108 -8528.9307
v  2397.6738 1004.4401 -8059.9771
v  3200.5024 1458.4769 -7873.9741
v  2721.5813 1458.4769 -7900.2568
v  3533.4111 1529.6394 -8163.7188
v  3246.3684 1455.0392 -8773.1650
v  2431.7998 1458.4769 -8607.9355
v  3078.0984 1458.4769 -8754.6396
v  2451.7437 1458.4771 -8504.2070
v  2602.3120 1458.4769 -8061.7910
v  3229.0562 1679.6534 -7899.0967
v  2795.2947 1648.3549 -7903.5850
v  3432.2207 1836.9686 -8230.2451
v  3158.0532 1890.5048 -8477.7588
v  2669.7754 1915.8910 -8535.8936
v  3024.1157 1915.8910 -8510.0049
v  2710.3137 1896.6556 -8455.0039
v  2600.6260 1838.5299 -8075.8481
v  3264.5793 2135.9299 -8059.7920
v  3260.3838 2041.5778 -7850.2886
v  3205.1331 2247.2688 -8404.7734
v  2946.3379 2277.8152 -8406.7354
v  3079.8914 2277.8152 -8381.1357
v  2879.7942 2258.5798 -8449.7578
v  2933.4702 2200.4541 -8237.6455
v  1895.5400 -716.3064 -7439.8311
v  2351.2251 -1215.0901 -8267.1631
v  2341.2329 -1215.0901 -7586.8115
v  3158.1133 -1215.0901 -8516.7520
v  2401.9641 -1215.0901 -8429.2188
v  3772.6631 -1201.0629 -8446.8652
v  3284.8992 -1039.5055 -7218.2715
v  3572.8501 -1086.6981 -7773.6899
v  2772.0684 -1215.0901 -7148.9224
# 86 vertices

vn 0.0000 -1.0000 -0.0000
vn 0.0295 -0.8394 0.5428
vn 0.4771 -0.8624 0.1694
vn -0.1534 0.7428 0.6517
vn -0.0325 0.7141 0.6993
vn 0.6877 0.7248 0.0423
vn 0.0227 -0.4255 0.9047
vn 0.8511 -0.4983 0.1650
vn -0.2965 -0.3311 -0.8958
vn -0.8992 -0.3791 -0.2187
vn -0.6050 -0.3778 0.7009
vn 0.8233 -0.4187 0.3832
vn 0.0038 0.9664 0.2568
vn 0.5989 0.7742 0.2046
vn 0.6907 0.7229 0.0175
vn -0.0745 0.5819 -0.8098
vn -0.9165 0.3927 -0.0759
vn -0.1262 0.9139 0.3859
vn -0.0388 0.4214 0.9060
vn 0.8714 0.3576 0.3359
vn 0.9081 0.4146 -0.0590
vn -0.0854 0.2605 -0.9617
vn -0.9346 0.2606 -0.2420
vn -0.5941 0.4307 0.6793
vn -0.0991 0.2449 0.9645
vn 0.7653 0.2575 0.5899
vn 0.9385 0.0796 -0.3361
vn -0.2016 -0.0828 -0.9760
vn -0.9080 0.3906 -0.1515
vn -0.6670 0.2261 0.7100
vn -0.0363 0.0780 0.9963
vn 0.6989 0.2144 0.6823
vn 0.7771 0.3578 -0.5177
vn -0.1125 0.3452 -0.9318
vn -0.8459 0.4255 0.3215
vn -0.6923 0.1092 0.7133
vn -0.0541 0.6394 0.7670
vn 0.9217 0.0631 0.3829
vn 0.8632 0.3074 -0.4005
vn 0.1003 0.2929 -0.9509
vn -0.8469 0.5299 -0.0433
vn -0.3951 0.3325 0.8564
vn 0.7003 0.5074 0.5021
vn 0.9058 0.3769 -0.1937
vn -0.0566 0.3572 -0.9323
vn 0.4789 0.3923 -0.7853
vn -0.7051 0.0618 0.7064
vn -0.7710 -0.6355 -0.0415
vn -0.1652 -0.7914 -0.5886
vn 0.2074 -0.8445 -0.4937
vn 0.6491 -0.6825 0.3360
vn 0.1638 -0.6049 0.7793
vn -0.5394 -0.6082 0.5824
vn -0.9506 -0.3073 0.0435
vn -0.1413 -0.4077 -0.9021
vn 0.0713 -0.3977 -0.9147
vn 0.8424 -0.3127 0.4389
vn 0.2903 -0.3353 0.8963
vn -0.6883 -0.3092 0.6562
vn -0.0136 -0.5956 0.8032
vn 0.1904 0.8368 -0.5133
vn -0.1699 0.7261 -0.6663
vn -0.6603 0.7510 -0.0058
vn -0.6119 -0.3572 0.7057
vn 0.7215 0.6080 0.3313
vn -0.9382 -0.3401 -0.0636
vn -0.8726 0.4882 0.0176
vn -0.9477 0.2590 0.1864
vn -0.8558 0.4102 0.3151
vn -0.9527 0.2962 0.0684
vn -0.8174 0.5750 0.0356
vn -0.9507 0.0717 0.3018
vn -0.7182 -0.6659 -0.2021
vn -0.6245 -0.4182 -0.6597
vn -0.7402 0.6608 -0.1241
vn 0.4218 -0.4223 -0.8024
vn 0.0895 0.8690 -0.4866
vn 0.1441 0.3054 -0.9412
vn 0.0537 -0.0858 -0.9949
vn 0.0886 0.5258 -0.8460
vn 0.0876 0.2577 -0.9622
vn 0.2450 0.4277 -0.8701
vn 0.7758 -0.5926 0.2164
vn 0.7383 -0.0393 0.6733
vn 0.3513 0.9303 0.1057
# 85 vertex normals

vt 0.3693 -1.5448 4.1632
vt 0.2865 -1.4379 4.2010
vt 0.3913 -1.1169 4.3145
vt -0.0017 -1.4641 4.1917
vt 0.3538 -0.0844 4.6772
vt 0.0694 -0.8889 4.1681
vt -0.1488 -0.9171 4.0747
vt -0.1935 -1.3127 4.2452
vt 0.4930 1.7423 -3.0293
vt 0.3501 1.9059 -3.1383
vt 0.0754 1.7442 -3.3912
vt 0.0101 1.7021 -3.4612
vt 0.0754 1.5602 -3.5113
vt 0.0348 1.5301 -3.4880
vt 0.2827 1.5796 -3.3677
vt 1.6740 0.9680 -1.5323
vt 1.1615 1.2513 -1.8713
vt 0.3376 -0.5292 -1.9368
vt 1.3691 -0.7719 -1.5081
vt 2.0770 1.7733 2.2195
vt 2.3509 2.7734 1.4672
vt 0.0911 2.2666 1.3682
vt 0.1162 1.5899 1.9773
vt -0.0683 -1.6227 1.9177
vt 1.0473 -1.6178 2.2745
vt 0.0747 1.1328 3.1511
vt -0.8542 0.5999 2.7869
vt -0.0683 1.9177 -1.6227
vt -0.0255 1.4311 -1.7437
vt 1.0965 1.6273 -1.7568
vt 1.0473 2.2745 -1.6178
vt -0.2378 -1.4473 -1.1515
vt -0.1429 -1.8881 -0.6916
vt 0.1486 -0.3545 -2.1511
vt -1.5323 0.9680 1.6740
vt -1.8713 1.2513 1.1615
vt 3.1511 -0.3545 0.1486
vt 3.1414 1.1731 0.6888
vt 1.4536 1.2836 0.2560
vt 1.4907 -0.1661 -0.2567
vt 0.6888 -2.1414 1.1731
vt 1.0901 0.0597 1.9489
vt 0.3662 0.3930 1.5953
vt 0.2560 -0.4536 1.2836
vt 0.6656 2.2036 1.7823
vt 0.3674 1.9092 1.6196
vt 0.6310 0.9570 2.4213
vt 1.3771 -1.1531 1.9830
vt 2.0177 -0.6125 1.6791
vt 0.9089 0.8174 2.0135
vt 1.3995 1.3505 -1.2164
vt 2.0213 1.3693 -0.6229
vt 2.0177 1.6791 -0.6125
vt 1.3771 1.9830 -1.1531
vt 2.1515 -1.4473 -0.2378
vt 0.5747 -0.5237 -0.9862
vt -0.2567 -0.1661 -0.4907
vt 0.2560 1.2836 -0.4536
vt -0.9099 1.3856 -0.0171
vt -1.2703 0.3663 0.1322
vt -0.6623 0.5803 1.6073
vt -0.9099 -0.0171 1.3856
vt -0.8829 1.6151 1.4121
vt 2.9008 0.0191 1.4512
vt 1.9841 1.1756 1.6769
vt 2.8329 1.3334 -0.1459
vt 2.9008 1.4512 0.0191
vt -0.9862 -0.5237 0.4253
vt -1.4485 -0.1376 0.5518
vt -1.7159 1.3761 0.2418
vt -1.9820 0.6236 0.2856
vt -1.6427 0.7247 1.9388
vt -1.7159 0.2418 1.3761
vt -1.6850 1.7405 1.4463
vt 3.1430 0.1683 1.4651
vt 2.7839 1.1838 1.7096
vt 3.1319 1.2922 0.1996
vt 3.1430 1.4651 0.1683
vt -2.0482 0.4362 0.5549
vt -2.0475 1.5439 0.2837
vt -2.2394 0.8449 0.2912
vt -2.1818 0.8356 1.9505
vt -2.0475 0.2837 1.5439
vt -2.4183 1.2481 1.5495
vt 3.7295 0.7964 1.3450
vt 3.5326 1.3531 1.3019
vt -0.4651 0.1683 -2.1430
vt -0.2922 0.1996 -2.1319
vt -0.2102 0.8494 -2.6768
vt -0.3450 0.7964 -2.7295
vt -2.6464 0.6447 0.5783
vt -2.7448 0.5515 1.8532
vt -2.5988 0.2024 1.7942
vt -2.9527 1.1265 1.8217
vt 4.1445 1.4320 1.1298
vt 4.0703 1.6419 1.0871
vt -0.2015 1.3168 -3.1513
vt -0.1298 1.4320 -3.1445
vt -2.5988 1.7942 0.2024
vt -3.0301 1.3688 0.8480
vt -3.1383 0.6499 1.9059
vt -3.0293 0.5070 1.7423
vt -3.3912 0.9246 1.7442
vt 4.5113 1.5602 0.9246
vt 4.4612 1.7021 0.9899
vt 4.1513 1.3168 1.2015
vt 4.4880 1.5301 0.9652
vt -3.0293 1.7423 0.5070
vt -3.3677 1.5796 0.7173
vt 0.0237 -0.4817 -1.8828
vt -1.0133 0.8972 -1.4439
vt -1.0077 -0.2368 -1.4596
vt 1.9177 -1.6227 1.0683
vt 2.7869 0.5999 1.8542
vt 1.3131 -0.1760 2.4616
vt 1.1672 -1.3642 2.0415
vt 1.1967 0.7974 2.7810
vt -0.8510 0.1208 2.2562
vt 0.0747 0.5470 2.4903
vt 2.2471 -0.7826 -0.9666
vt 2.2562 0.1208 -0.8510
vt -0.3691 -1.5081 -0.7719
vt -1.2471 -0.9666 -0.7826
vt -3.1632 0.3693 -1.5448
vt -3.1917 -0.0017 -1.4641
vt -1.0415 -1.3642 1.1672
vt -1.4616 -0.1760 1.3131
vt -3.3145 -1.1169 0.3913
vt -3.2010 -1.4379 0.2865
vt -1.7810 0.7974 1.1967
vt -3.6772 -0.0844 0.3538
vt 2.4903 0.0747 0.5470
vt 2.2562 -0.8510 0.1208
vt 4.0747 -0.1488 -0.9171
vt 4.1681 0.0694 -0.8889
vt 4.2452 -1.3127 -0.1935
vt 4.0747 -0.9171 -0.1488
vt -3.2452 -0.1935 -1.3127
vt 0.6888 1.1731 -2.1414
vt -1.4213 0.9570 0.3690
vt -1.2036 1.7823 0.6656
vt -1.3509 2.7734 1.4672
vt -2.1511 1.1328 0.9253
vt -0.9830 -1.1531 -0.3771
vt -1.2745 -1.6178 -0.0473
vt 1.6916 -1.8881 -0.1429
vt -0.3505 -1.2164 -0.3995
vt -0.6273 -1.7568 -0.0965
vt 0.9763 -1.8828 -0.4817
vt 1.1615 -1.8713 1.2513
vt 1.3682 0.0911 2.2666
vt 1.1429 -0.6916 -1.8881
vt -0.3693 -0.6229 -1.0213
vt 1.9862 0.4253 -0.5237
vt 2.4485 0.5518 -0.1376
vt -0.3334 -0.1459 -1.8329
vt 0.4482 -0.1376 -1.4485
vt 0.4451 0.4362 -2.0482
vt 3.0482 0.5549 0.4362
vt 3.6464 0.5783 0.6447
vt 3.6768 1.2102 0.8494
vt 0.4217 0.6447 -2.6464
vt 0.1520 1.3688 -3.0301
vt 4.1513 1.2015 1.3168
vt 4.0301 0.8480 1.3688
vt 4.3677 0.7173 1.5796
vt 4.4880 0.9652 1.5301
vt -1.0415 1.1672 -1.3642
vt -3.2010 0.2865 -1.4379
vt -0.4672 2.7734 2.3509
vt -1.2195 1.7733 2.0770
vt -1.0135 0.8174 0.0911
vt -0.9092 1.6196 0.3674
vt 0.6326 1.6196 1.9092
vt 1.8829 1.4121 1.6151
vt 2.6850 1.4463 1.7405
vt 3.4183 1.5495 1.2481
vt 3.9527 1.8217 1.1265
vt 4.3912 1.7442 0.9246
vt 2.7810 1.1967 0.7974
vt 4.6772 0.3538 -0.0844
vt 0.9403 1.9489 1.0901
vt 0.9089 2.2666 1.3682
# 183 texture coords

g Box012
usemtl wire_027177088
s off
f 1/1/1 2/2/1 3/3/1 4/4/1 
f 5/5/2 6/6/2 7/7/2 3/3/2 
f 4/4/3 3/3/3 7/7/3 8/8/3 
f 9/9/4 10/10/4 11/11/4 12/12/4 
f 9/9/5 12/12/5 13/13/5 14/14/5 
f 15/15/6 9/9/6 14/14/6 
f 16/16/7 17/17/7 18/18/7 19/19/7 
f 20/20/8 21/21/8 22/22/8 23/23/8 
f 24/24/9 25/25/9 26/26/9 27/27/9 
f 24/28/10 28/29/10 29/30/10 25/31/10 
f 30/32/11 31/33/11 18/18/11 32/34/11 
f 16/35/12 23/23/12 22/22/12 17/36/12 
f 32/37/13 33/38/13 34/39/13 35/40/13 
f 33/41/14 36/42/14 37/43/14 34/44/14 
f 38/45/15 39/46/15 37/43/15 36/42/15 
f 40/47/16 41/48/16 42/49/16 43/50/16 
f 44/51/17 45/52/17 42/53/17 41/54/17 
f 30/55/18 32/37/18 35/40/18 46/56/18 
f 35/57/19 34/58/19 47/59/19 48/60/19 
f 34/44/20 37/43/20 49/61/20 47/62/20 
f 39/46/21 50/63/21 49/61/21 37/43/21 
f 43/50/22 42/49/22 51/64/22 52/65/22 
f 42/53/23 45/52/23 53/66/23 51/67/23 
f 46/68/24 35/57/24 48/60/24 54/69/24 
f 48/60/25 47/59/25 55/70/25 56/71/25 
f 47/62/26 49/61/26 57/72/26 55/73/26 
f 50/63/27 58/74/27 57/72/27 49/61/27 
f 52/65/28 51/64/28 59/75/28 60/76/28 
f 53/66/29 61/77/29 59/78/29 51/67/29 
f 54/69/30 48/60/30 56/71/30 62/79/30 
f 56/71/31 55/70/31 63/80/31 64/81/31 
f 55/73/32 57/72/32 65/82/32 63/83/32 
f 58/74/33 66/84/33 65/82/33 57/72/33 
f 60/76/34 59/75/34 67/85/34 68/86/34 
f 59/87/35 61/88/35 69/89/35 67/90/35 
f 62/79/36 56/71/36 64/81/36 70/91/36 
f 70/91/37 64/81/37 63/80/37 
f 63/83/38 65/82/38 71/92/38 72/93/38 
f 66/84/39 73/94/39 71/92/39 65/82/39 
f 68/86/40 67/85/40 74/95/40 75/96/40 
f 67/90/41 69/89/41 76/97/41 74/98/41 
f 70/91/42 63/80/42 72/99/42 77/100/42 
f 72/93/43 71/92/43 10/101/43 9/102/43 
f 73/94/44 11/103/44 10/101/44 71/92/44 
f 75/96/45 74/95/45 13/104/45 12/105/45 
f 74/95/46 76/106/46 14/107/46 13/104/46 
f 77/100/47 72/99/47 9/108/47 15/109/47 
f 78/110/48 28/29/48 79/111/48 80/112/48 
f 24/113/49 27/114/49 81/115/49 82/116/49 
f 20/20/50 83/117/50 81/115/50 27/114/50 
f 23/23/51 16/35/51 84/118/51 85/119/51 
f 16/16/52 19/19/52 86/120/52 84/121/52 
f 19/122/53 78/110/53 80/112/53 86/123/53 
f 80/112/54 79/111/54 1/124/54 4/125/54 
f 82/126/55 81/127/55 3/128/55 2/129/55 
f 83/130/56 5/131/56 3/128/56 81/127/56 
f 85/132/57 84/133/57 7/134/57 6/135/57 
f 84/121/58 86/120/58 8/136/58 7/137/58 
f 86/123/59 80/112/59 4/125/59 8/138/59 
f 17/17/60 33/139/60 32/34/60 18/18/60 
f 40/140/61 38/141/61 21/142/61 26/143/61 
f 41/144/62 40/140/62 26/143/62 25/145/62 
f 31/146/63 30/55/63 44/147/63 29/148/63 
f 78/149/64 19/19/64 18/18/64 31/33/64 
f 36/42/65 33/41/65 17/150/65 22/151/65 
f 28/29/66 78/110/66 31/152/66 29/30/66 
f 44/147/67 30/55/67 46/56/67 45/153/67 
f 45/52/68 46/154/68 54/155/68 53/66/68 
f 53/156/69 54/157/69 62/158/69 61/88/69 
f 61/77/70 62/159/70 70/160/70 69/161/70 
f 69/89/71 70/162/71 77/163/71 76/97/71 
f 76/164/72 77/165/72 15/166/72 14/167/72 
f 28/29/73 24/28/73 82/168/73 79/111/73 
f 79/111/74 82/168/74 2/169/74 1/124/74 
f 41/144/75 25/145/75 29/148/75 44/147/75 
f 27/27/76 26/26/76 21/170/76 20/171/76 
f 38/141/77 40/140/77 43/172/77 39/173/77 
f 39/174/78 43/50/78 52/65/78 50/175/78 
f 52/65/79 60/76/79 58/176/79 50/175/79 
f 58/176/80 60/76/80 68/86/80 66/177/80 
f 68/86/81 75/96/81 73/178/81 66/177/81 
f 75/96/82 12/105/82 11/179/82 73/178/82 
f 20/20/83 23/23/83 85/119/83 83/117/83 
f 83/180/84 85/132/84 6/135/84 5/181/84 
f 36/182/85 22/183/85 21/142/85 38/141/85 
# 83 polygons - 2 triangles

